<?xml version="1.0" encoding="UTF-8" standalone="no"?>
<!-- Created with Inkscape (http://www.inkscape.org/) -->

<svg
   width="1920"
   height="1080"
   viewBox="0 0 508 285.75"
   version="1.1"
   id="svg1"
   inkscape:version="1.3.2 (091e20e, 2023-11-25)"
   sodipodi:docname="background.svg"
   xmlns:inkscape="http://www.inkscape.org/namespaces/inkscape"
   xmlns:sodipodi="http://sodipodi.sourceforge.net/DTD/sodipodi-0.dtd"
   xmlns="http://www.w3.org/2000/svg"
   xmlns:svg="http://www.w3.org/2000/svg">
  <sodipodi:namedview
     id="namedview1"
     pagecolor="#ffffff"
     bordercolor="#000000"
     borderopacity="0.25"
     inkscape:showpageshadow="2"
     inkscape:pageopacity="0.0"
     inkscape:pagecheckerboard="0"
     inkscape:deskcolor="#d1d1d1"
     inkscape:document-units="mm"
     inkscape:zoom="0.5297721"
     inkscape:cx="970.22852"
     inkscape:cy="547.40519"
     inkscape:window-width="1904"
     inkscape:window-height="943"
     inkscape:window-x="8"
     inkscape:window-y="33"
     inkscape:window-maximized="0"
     inkscape:current-layer="layer1" />
  <defs
     id="defs1">
    <inkscape:path-effect
       effect="lattice2"
       gridpoint0="-42.776754,-8.6055569"
       gridpoint1="587.22325,-8.6055569"
       gridpoint2="-42.776754,306.39445"
       gridpoint3="587.22325,306.39445"
       gridpoint4="114.72325,-8.6055569"
       gridpoint5="429.72325,-8.6055569"
       gridpoint6="114.72325,306.39445"
       gridpoint7="429.72325,306.39445"
       gridpoint8x9="272.22325,-8.6055569"
       gridpoint10x11="272.22325,306.39445"
       gridpoint12="-42.776754,70.144445"
       gridpoint13="587.22325,70.144445"
       gridpoint14="-15.13012,319.58558"
       gridpoint15="587.22325,227.64445"
       gridpoint16="168.73063,79.78862"
       gridpoint17="220.76613,150.51257"
       gridpoint18="200.23493,104.19901"
       gridpoint19="429.72325,227.64445"
       gridpoint20x21="272.22325,70.144445"
       gridpoint22x23="223.35943,196.14014"
       gridpoint24x26="-42.776754,148.89445"
       gridpoint25x27="587.22325,148.89445"
       gridpoint28x30="75.503603,172.68341"
       gridpoint29x31="450.29749,121.24781"
       gridpoint32x33x34x35="331.37419,166.25396"
       id="path-effect36"
       is_visible="true"
       lpeversion="1"
       horizontal_mirror="false"
       vertical_mirror="false"
       perimetral="false"
       live_update="true" />
  </defs>
  <g
     inkscape:label="Layer 1"
     inkscape:groupmode="layer"
     id="layer1">
    <rect
       style="fill:#fff7df;fill-opacity:1;stroke:none;stroke-width:2.24118;stroke-linecap:round;paint-order:fill markers stroke"
       id="rect36"
       width="508"
       height="285.75"
       x="-4.2632564e-14"
       y="-3.5527137e-14" />
    <path
       id="path36"
       style="fill:#fbb543;stroke-width:2.1;stroke-linecap:round;paint-order:fill markers stroke"
       d="M 0 0 L 0 3.6829793 C 0.85475666 3.7013682 1.4593505 3.7111424 2.1791951 3.7274211 C 2.1791951 3.7274211 1.8814167 1.2287508 1.7347778 0 L 0 0 z M 2.1791951 3.7274211 C 3.0966182 11.400725 4.0237196 19.079214 5.0110636 27.138395 C 5.0110636 27.138395 18.359514 27.555165 24.907007 27.796236 C 24.907007 27.796236 22.793203 11.919085 21.844661 4.212146 C 21.844661 4.212146 8.7940155 3.8770109 2.1791951 3.7274211 z M 21.844661 4.212146 C 21.844661 4.212146 34.784958 4.5684411 41.179399 4.7604329 C 41.179399 4.7604329 40.835117 1.1210339 40.716895 0 L 21.35942 0 C 21.531565 1.4314084 21.66661 2.7654713 21.844661 4.212146 z M 41.179399 4.7604329 C 42.086881 12.5974 43.141102 20.562172 44.298588 28.57655 C 44.298588 28.57655 56.984635 29.148368 63.21733 29.45505 C 63.21733 29.45505 61.003745 13.342675 60.213896 5.3598796 C 60.213896 5.3598796 47.573839 4.9524248 41.179399 4.7604329 z M 60.213896 5.3598796 C 60.213896 5.3598796 72.763738 5.7800009 78.978642 5.9975667 C 78.978642 5.9975667 78.786737 2.6373911 78.63396 0 L 59.764311 0 C 59.917285 1.7882238 60.03612 3.5631514 60.213896 5.3598796 z M 78.978642 5.9975667 C 79.579226 14.132607 80.523108 22.305407 81.699406 30.40848 C 81.699406 30.40848 93.816209 31.072013 99.783573 31.41307 C 99.783573 31.41307 99.202351 27.332348 98.661161 22.181592 C 98.064632 16.50418 97.70233 11.346169 97.50671 6.6610921 C 97.50671 6.6610921 85.193549 6.2151315 78.978642 5.9975667 z M 97.50671 6.6610921 C 97.50671 6.6610921 109.75094 7.1112626 115.82962 7.3380534 C 115.82962 7.3380534 115.89028 3.5673781 115.99912 0 L 97.424028 0 C 97.44788 2.2211079 97.414135 4.4439472 97.50671 6.6610921 z M 115.82962 7.3380534 C 115.86342 15.808056 116.48609 24.214699 117.51117 32.447115 C 117.51117 32.447115 129.1672 33.14212 134.92716 33.487878 C 134.92716 33.487878 134.45324 29.341024 134.15202 24.057446 C 133.81995 18.232512 133.79633 12.895974 133.98304 8.0175985 C 133.98304 8.0175985 121.92925 7.5656252 115.82962 7.3380534 z M 133.98304 8.0175985 C 133.98304 8.0175985 146.01177 8.4666605 152.00002 8.6868083 C 152.00002 8.6868083 152.40352 4.5425104 153.05009 0 L 134.63778 0 C 134.39339 2.6774978 134.08452 5.3657707 133.98304 8.0175985 z M 152.00002 8.6868083 C 151.26063 17.495875 151.37405 26.139179 152.08064 34.514172 C 152.08064 34.514172 163.40279 35.182976 169.02172 35.505326 C 169.02172 35.505326 168.73441 31.291744 168.77781 25.878524 C 168.82565 19.909525 169.24879 14.39944 169.91728 9.334314 C 169.91728 9.334314 157.98828 8.906957 152.00002 8.6868083 z M 169.91728 9.334314 C 169.91728 9.334314 181.82487 9.7506279 187.77097 9.9487467 C 187.77097 9.9487467 188.52496 5.583109 190.01838 0 L 171.54715 0 C 170.89484 3.1357666 170.32363 6.2553574 169.91728 9.334314 z M 187.77097 9.9487467 C 186.11509 19.072416 185.56832 27.932872 185.80623 36.441187 C 185.80623 36.441187 196.93777 37.029721 202.49048 37.302116 C 202.49048 37.302116 202.45934 33.03059 202.92767 27.505298 C 203.44418 21.411506 204.38789 15.748811 205.59934 10.518738 C 205.59934 10.518738 193.71705 10.146866 187.77097 9.9487467 z M 205.59934 10.518738 C 205.59934 10.518738 217.48543 10.872767 223.44011 11.033952 C 223.44011 11.033952 224.68712 6.3492685 227.00423 0.30747477 C 227.04499 0.20120938 227.09553 0.10602515 227.13652 0 L 208.59967 0 C 207.43602 3.5477007 206.39923 7.0654404 205.59934 10.518738 z M 223.44011 11.033952 C 220.79648 20.421341 219.48619 29.456263 219.13649 38.068994 C 219.13649 38.068994 230.23807 38.525764 235.80783 38.723218 C 235.80783 38.723218 236.08339 34.41245 237.02481 28.805477 C 238.06328 22.620492 239.5614 16.84084 241.33359 11.481986 C 241.33359 11.481986 229.39478 11.195136 223.44011 11.033952 z M 241.33359 11.481986 C 241.33359 11.481986 253.30311 11.743716 259.31957 11.85354 C 259.31957 11.85354 261.04729 7.0775448 264.05985 0.88159993 C 264.20763 0.57766441 264.38253 0.30216629 264.53217 0 L 245.83409 0 C 244.11513 3.8872821 242.57489 7.7284604 241.33359 11.481986 z M 259.31957 11.85354 C 255.69825 21.429189 253.58205 30.576593 252.57115 39.247734 C 252.57115 39.247734 263.81924 39.524848 269.49776 39.623938 C 269.49776 39.623938 270.10654 35.299943 271.52916 29.65297 C 273.09861 23.423168 275.13678 17.575818 277.43888 12.13776 C 277.43888 12.13776 265.33604 11.963363 259.31957 11.85354 z M 277.43888 12.13776 C 277.43888 12.13776 289.60098 12.278759 295.73492 12.323279 C 295.73492 12.323279 297.89736 7.5051632 301.50769 1.2247314 C 301.74987 0.80345808 302.02694 0.41815126 302.27251 0 L 283.36978 0 C 281.13039 4.1225855 279.11275 8.1837247 277.43888 12.13776 z M 295.73492 12.323279 C 291.23639 21.988919 288.34681 31.167428 286.66054 39.836328 C 286.66054 39.836328 298.24902 39.889497 304.13647 39.868368 C 304.13647 39.868368 305.07119 35.563843 306.93527 29.928406 C 308.99174 23.711358 311.50261 17.856565 314.25007 12.40131 C 314.25007 12.40131 301.86886 12.367799 295.73492 12.323279 z M 314.25007 12.40131 C 314.25007 12.40131 326.71866 12.395253 333.02825 12.361003 C 333.02825 12.361003 335.53014 7.5593929 339.57204 1.2800252 C 339.85497 0.84046729 340.17092 0.4363534 340.45726 0 L 321.30907 0 C 318.67262 4.2218579 316.27978 8.3711753 314.25007 12.40131 z M 333.02825 12.361003 C 327.85257 21.997293 324.30797 31.110737 322.00567 39.704553 C 322.00567 39.704553 334.1453 39.491553 340.35028 39.329899 C 340.35028 39.329899 341.56322 35.08351 343.77333 29.519645 C 346.21115 23.382524 349.06554 17.591554 352.11494 12.192537 C 352.11494 12.192537 339.33784 12.326753 333.02825 12.361003 z M 352.11494 12.192537 C 352.11494 12.192537 365.01025 12.012619 371.55613 11.886613 C 371.55613 11.886613 374.2471 7.1707569 378.48181 0.99322103 C 378.71536 0.65251029 378.97144 0.33883141 379.20683 0 L 359.76254 0 C 356.94054 4.1543633 354.35033 8.2347317 352.11494 12.192537 z M 371.55613 11.886613 C 366.0121 21.354861 362.02849 30.294346 359.25714 38.730452 C 359.25714 38.730452 372.17604 38.212652 378.81564 37.891744 C 378.81564 37.891744 380.21316 33.745822 382.61024 28.320752 C 385.25341 22.338695 388.25428 16.692362 391.39833 11.433411 C 391.39833 11.433411 378.10201 11.760608 371.55613 11.886613 z M 391.39833 11.433411 C 391.39833 11.433411 404.84433 11.054407 411.6896 10.824146 C 411.6896 10.824146 414.36097 6.2704896 418.47316 0.31005859 C 418.54655 0.20369511 418.62597 0.10617591 418.69951 0 L 398.87384 0 C 396.15263 3.8921212 393.61863 7.7195943 391.39833 11.433411 z M 411.6896 10.824146 C 406.20399 19.968003 402.10987 28.612468 399.11827 36.800854 C 399.11827 36.800854 413.06095 35.942717 420.26065 35.445382 C 420.26065 35.445382 421.69312 31.446229 424.04647 26.233024 C 426.64016 20.487447 429.51592 15.074751 432.47851 10.048999 C 432.47851 10.048999 418.53488 10.593884 411.6896 10.824146 z M 432.47851 10.048999 C 432.47851 10.048999 446.60389 9.4462426 453.81416 9.099703 C 453.81416 9.099703 456.18827 4.9322198 459.2929 0 L 438.96855 0 C 436.69195 3.392576 434.39874 6.7915129 432.47851 10.048999 z M 453.81416 9.099703 C 448.94095 17.746831 445.18853 25.967803 442.34148 33.81344 C 442.34148 33.81344 457.5693 32.583032 465.46306 31.89366 C 465.46306 31.89366 466.72151 28.08674 468.72074 23.162927 C 470.92274 17.739782 473.31688 12.658736 475.74822 7.9674723 C 475.74822 7.9674723 461.02442 8.7531623 453.81416 9.099703 z M 475.74822 7.9674723 C 475.74822 7.9674723 490.68853 7.1178827 498.33186 6.6435221 C 498.33186 6.6435221 499.98961 3.1391755 501.50324 0 L 480.242 0 C 478.70671 2.6709683 477.09244 5.3738122 475.74822 7.9674723 z M 498.33186 6.6435221 C 494.76155 14.607225 491.93774 22.269503 489.73031 29.674674 C 489.73031 29.674674 499.90746 28.668884 508 27.864966 L 508 6.0104858 C 503.76076 6.2895318 501.50545 6.4465623 498.33186 6.6435221 z M 489.73031 29.674674 C 489.73031 29.674674 485.57553 30.072219 480.48953 30.542322 C 474.90795 31.058232 469.89084 31.506978 465.46306 31.89366 C 462.86548 39.53064 461.03343 46.868011 459.80708 53.946578 C 459.80708 53.946578 463.83463 53.521027 469.00238 52.959041 C 474.67098 52.342588 479.99673 51.749521 484.82105 51.20411 C 484.82105 51.20411 485.3474 47.731678 486.27833 43.28573 C 487.30354 38.389533 488.48696 33.845716 489.73031 29.674674 z M 484.82105 51.20411 C 483.71548 58.163452 483.09742 64.939209 482.85528 71.557389 C 482.85528 71.557389 487.17297 71.037782 492.7415 70.356946 C 498.17789 69.692267 503.23344 69.065078 508 68.471273 L 508 48.518486 C 506.20383 48.731607 504.97155 48.879208 501.28878 49.309652 C 495.13516 50.02889 489.65565 50.657537 484.82105 51.20411 z M 482.85528 71.557389 C 482.85528 71.557389 478.50825 72.081946 473.23985 72.706156 C 467.44854 73.392319 462.31673 73.989097 457.78653 74.50863 C 457.617 81.148139 457.90164 87.616024 458.50741 93.92915 C 458.50741 93.92915 462.44147 93.476969 467.52185 92.881669 C 473.08444 92.22987 478.37192 91.600761 483.15242 91.027002 C 483.15242 91.027002 482.93293 87.846175 482.81601 83.812455 C 482.6872 79.366513 482.71868 75.290813 482.85528 71.557389 z M 483.15242 91.027002 C 483.55881 97.392436 484.24076 103.67463 485.10424 109.87133 C 485.10424 109.87133 489.24274 109.40507 494.60133 108.79233 C 493.6143 108.90707 503.97304 107.71113 508 107.24668 L 508 88.001347 C 506.71598 88.159714 504.19078 88.47202 499.59121 89.034359 C 493.39988 89.791304 487.97064 90.448723 483.15242 91.027002 z M 485.10424 109.87133 C 485.10424 109.87133 480.935 110.3435 475.90118 110.90382 C 470.36447 111.52012 465.4846 112.05446 461.1765 112.52026 C 462.30835 118.5978 463.65428 124.62388 465.09874 130.56051 C 465.09874 130.56051 468.77737 130.21486 473.53182 129.7559 C 478.74641 129.25253 483.6813 128.76553 488.17072 128.3162 C 488.17072 128.3162 485.96881 116.07589 485.10424 109.87133 z M 488.17072 128.3162 C 489.32041 134.39861 490.58805 140.5106 491.8816 146.55178 C 491.8816 146.55178 495.71328 146.23751 500.66556 145.81539 C 503.28126 145.59244 505.54294 145.38911 508 145.17408 L 508 126.28997 C 506.29677 126.46738 506.0019 126.49987 503.59252 126.74834 C 497.79165 127.34654 492.67375 127.86551 488.17072 128.3162 z M 465.09874 130.56051 C 465.09874 130.56051 461.39396 130.91016 456.91113 131.32067 C 451.98898 131.77141 447.61601 132.15992 443.77343 132.49372 C 445.4602 138.24864 447.28371 144.06894 449.06768 149.7304 C 449.06768 149.7304 452.37286 149.51661 456.62587 149.225 C 461.29854 148.90462 465.6803 148.58943 469.68038 148.29276 C 469.68038 148.29276 466.5492 136.52177 465.09874 130.56051 z M 469.68038 148.29276 C 471.2599 154.17646 472.86453 160.04484 474.42789 165.92631 C 474.42789 165.92631 477.86478 165.75706 482.28374 165.51806 C 487.14222 165.2553 491.68411 164.99077 495.83743 164.73671 C 495.83743 164.73671 493.17855 152.60928 491.8816 146.55229 C 491.8816 146.55229 488.02306 146.87146 483.35551 147.24218 C 478.23554 147.64882 473.67391 147.99657 469.68038 148.29276 z M 495.83743 164.73671 C 497.16652 170.84281 498.45516 176.84656 499.708 182.994 C 499.708 182.994 503.26071 182.86069 507.81758 182.66069 C 507.88312 182.65781 507.93458 182.65478 508 182.6519 L 508 163.9502 C 503.59129 164.24572 499.38864 164.51948 495.83743 164.73671 z M 499.708 182.994 C 499.708 182.994 496.13558 183.13266 491.78032 183.2746 C 487.01106 183.43003 482.70784 183.54575 478.94596 183.63375 C 480.383 189.58409 481.71713 195.5134 482.94106 201.55411 C 482.94106 201.55411 496.31097 201.52393 503.23233 201.41406 C 503.23233 201.41406 500.95322 189.104 499.708 182.994 z M 503.23233 201.41406 C 504.32905 207.60333 505.32678 213.7845 506.22026 220.05272 C 506.22026 220.05272 507.81038 220.03973 508 220.03928 L 508 201.29262 C 505.94748 201.34107 504.78371 201.38944 503.23233 201.41406 z M 506.22026 220.05272 C 506.22026 220.05272 492.78442 219.93971 486.21787 219.79072 C 487.1797 225.94614 487.99712 232.12075 488.68283 238.41232 C 488.68283 238.41232 501.16435 238.79702 508 238.91927 L 508 234.46786 C 507.56495 230.71904 506.90089 224.82768 506.22026 220.05272 z M 488.68283 238.41232 C 488.68283 238.41232 475.61488 237.88893 469.16154 237.55604 C 469.79778 243.80398 470.2816 250.09607 470.65913 256.5709 C 470.65913 256.5709 483.753 257.20277 490.34061 257.4525 C 490.34061 257.4525 489.367 244.68966 488.68283 238.41232 z M 490.34061 257.4525 C 490.7691 263.89141 491.07404 270.33646 491.29663 276.91075 C 491.29663 276.91075 501.09451 277.13856 508 277.2761 L 508 257.98064 C 505.62642 257.91824 496.20581 257.67484 490.34061 257.4525 z M 491.29663 276.91075 C 491.29663 276.91075 478.1019 276.52394 471.51282 276.29166 C 471.61356 279.47196 471.6882 282.64326 471.77017 285.75 L 491.50178 285.75 C 491.41899 281.9278 491.39549 279.83074 491.29663 276.91075 z M 471.51282 276.29166 C 471.51282 276.29166 471.0355 263.02558 470.65913 256.5709 C 470.65913 256.5709 457.61862 255.86479 451.13629 255.46709 C 451.41806 262.04012 451.59869 268.59157 451.77552 275.5315 C 451.77552 275.5315 464.92374 276.05937 471.51282 276.29166 z M 451.77552 275.5315 C 451.77552 275.5315 438.64732 274.97027 432.09869 274.67109 C 432.15412 278.19911 432.30322 282.04586 432.39738 285.75 L 452.04373 285.75 C 451.94525 282.10934 451.84359 278.20164 451.77552 275.5315 z M 432.09869 274.67109 C 432.09869 274.67109 432.0455 271.12052 431.985 266.81937 C 431.91593 261.90662 431.85743 258.08796 431.77313 254.20567 C 431.77313 254.20567 418.94652 253.30978 412.57068 252.8471 C 412.57068 252.8471 412.58912 249.50794 412.57482 245.48321 C 412.55888 241.00825 412.5033 237.20495 412.4079 233.71338 C 412.4079 233.71338 400.09946 232.73131 393.99662 232.23699 C 393.93999 238.40618 393.74522 244.63898 393.52482 251.44873 C 393.52482 251.44873 406.17198 252.38279 412.57017 252.8471 C 412.54587 259.27123 412.47514 266.68055 412.49524 273.7497 C 412.49524 273.7497 425.55007 274.37191 432.09869 274.67109 z M 412.49524 273.7497 C 412.49524 273.7497 399.46708 273.11963 392.97291 272.80454 C 392.92037 276.95567 392.93241 281.29792 393.00185 285.75 L 412.65595 285.75 C 412.56264 281.4031 412.50493 277.1505 412.49524 273.7497 z M 392.97291 272.80454 C 392.97291 272.80454 393.02021 269.02392 393.13259 264.51719 C 393.24864 259.86357 393.41143 254.93586 393.5243 251.44873 C 393.5243 251.44873 380.88268 250.51646 374.62933 250.06484 C 374.20369 256.82754 373.77325 264.17861 373.53947 271.87074 C 373.53947 271.87074 386.47876 272.48945 392.97291 272.80454 z M 373.53947 271.87074 C 373.53947 271.87074 360.63102 271.26673 354.19802 270.98088 C 353.96428 275.65373 353.85356 280.6253 353.82957 285.75 L 373.39013 285.75 C 373.35697 280.608 373.42046 275.78658 373.53947 271.87074 z M 354.19802 270.98088 C 354.19802 270.98088 354.39359 266.97587 354.73235 262.26668 C 355.09526 257.2218 355.52197 252.49389 355.87647 248.74657 C 355.87647 248.74657 343.4429 247.91929 337.25487 247.54148 C 336.37704 254.4747 335.52777 262.04743 334.94906 270.16594 C 334.94906 270.16594 347.76501 270.69503 354.19802 270.98088 z M 334.94906 270.16594 C 334.94906 270.16594 322.16354 269.67061 315.79106 269.45332 C 315.31189 274.5517 315.00089 280.05271 314.79732 285.75 L 334.25402 285.75 C 334.36467 279.85783 334.63777 274.53297 334.94906 270.16594 z M 315.79106 269.45332 C 315.79106 269.45332 316.17797 265.26206 316.7786 260.38566 C 317.42635 255.12669 318.14042 250.34686 318.75057 246.49451 C 318.75057 246.49451 306.46819 245.89204 300.34704 245.64702 C 299.01203 252.69353 297.71459 260.44076 296.71987 268.87041 C 296.71987 268.87041 309.41859 269.23603 315.79106 269.45332 z M 296.71987 268.87041 C 296.71987 268.87041 284.04711 268.55622 277.72723 268.44098 C 276.95748 273.81401 276.36948 279.66632 275.8953 285.75 L 295.2564 285.75 C 295.2583 285.71514 295.25654 285.7198 295.25846 285.68489 C 295.61454 279.23423 296.16696 273.55594 296.71987 268.87041 z M 277.72723 268.44098 C 277.72723 268.44098 278.33579 264.12924 279.215 259.14904 C 280.16545 253.76536 281.16713 248.94169 282.02413 245.03724 C 282.02413 245.03724 269.84254 244.76319 263.76064 244.69979 C 262.00223 251.78303 260.26112 259.60414 258.80436 268.18621 C 258.80436 268.18621 271.40735 268.32574 277.72723 268.44098 z M 258.80436 268.18621 C 258.80436 268.18621 246.21983 268.11177 239.93729 268.12627 C 238.861 273.57627 237.94046 279.53925 237.12144 285.75 L 256.41639 285.75 C 256.4369 285.54822 256.42666 285.57287 256.44791 285.36914 C 257.13858 278.74788 257.99452 272.95709 258.80436 268.18621 z M 239.93729 268.12627 C 239.93729 268.12627 240.78472 263.78555 241.93975 258.78937 C 243.18908 253.38532 244.45645 248.56729 245.53127 244.66672 C 245.53127 244.66672 233.38661 244.80889 227.30912 244.96748 C 225.19398 251.98752 223.04448 259.74445 221.11105 268.2782 C 221.11105 268.2782 233.65476 268.14077 239.93729 268.12627 z M 221.11105 268.2782 C 221.11105 268.2782 208.57478 268.492 202.30703 268.65802 C 200.94699 273.94771 199.68176 279.7286 198.48608 285.75 L 217.71333 285.75 C 217.74431 285.55868 217.7338 285.58182 217.76552 285.38878 C 218.85052 278.78572 220.03632 273.02181 221.11105 268.2782 z M 202.30703 268.65802 C 202.30703 268.65802 203.39411 264.39947 204.80197 259.49579 C 206.32295 254.19812 207.81756 249.45409 209.06321 245.62635 C 209.06321 245.62635 196.87661 246.25375 190.76148 246.66608 C 188.38384 253.49991 185.89105 261.0299 183.50456 269.27814 C 183.50456 269.27814 196.03928 268.82403 202.30703 268.65802 z M 183.50456 269.27814 C 183.50456 269.27814 170.96221 269.81636 164.67935 270.14992 C 163.10796 275.00749 161.55 280.27399 160.01659 285.75 L 179.16839 285.75 C 180.67032 279.40997 182.18255 273.84731 183.50456 269.27814 z M 164.67935 270.14992 C 164.67935 270.14992 165.98489 266.1004 167.60166 261.41453 C 169.33734 256.38399 171.0184 251.76415 172.36777 248.10527 C 172.36777 248.10527 160.04587 249.27164 153.84384 249.96097 C 151.32417 256.45361 148.57228 263.59597 145.80557 271.28163 C 145.80557 271.28163 158.39651 270.48347 164.67935 270.14992 z M 145.80557 271.28163 C 145.80557 271.28163 133.18837 272.16924 126.85324 272.68051 C 125.2636 276.66124 123.54937 281.362 121.8799 285.75 L 140.84308 285.75 C 142.63076 280.28947 144.3588 275.30061 145.80557 271.28163 z M 126.85324 272.68051 C 126.85324 272.68051 128.33277 268.97807 130.09283 264.64845 C 131.50155 261.17736 133.74015 255.71564 135.14886 252.24455 C 135.14886 252.24455 122.58432 253.98478 116.2389 254.96583 C 113.65974 261.07516 110.86827 267.39336 107.79135 274.34966 C 107.79135 274.34966 120.51811 273.19178 126.85324 272.68051 z M 107.79135 274.34966 C 107.79135 274.34966 95.015664 275.59937 88.58374 276.2927 C 87.126257 279.26654 85.406736 282.62867 83.83881 285.75 L 102.77254 285.75 C 104.58522 281.61163 106.45487 277.37116 107.79135 274.34966 z M 88.58374 276.2927 C 88.58374 276.2927 90.165024 273.08364 91.980432 269.25798 C 93.98577 265.03207 95.642918 261.39087 97.067977 258.13101 C 97.067977 258.13101 84.138978 260.46426 77.586479 261.7432 C 75.141327 267.16538 72.353006 272.70727 69.194226 278.50858 C 69.194226 278.50858 82.151816 276.98603 88.58374 276.2927 z M 69.194226 278.50858 C 69.194226 278.50858 56.162517 280.12188 49.581986 280.99577 C 48.626886 282.56519 47.558906 284.16203 46.526359 285.75 L 65.086466 285.75 C 66.518467 283.25025 68.040852 280.62684 69.194226 278.50858 z M 49.581986 280.99577 C 49.581986 280.99577 51.16112 278.42864 52.920801 275.2602 C 54.853045 271.78104 56.434232 268.62399 57.742729 265.80238 C 57.742729 265.80238 44.312953 268.73047 37.482467 270.30495 C 35.297821 274.8966 32.723803 279.35973 29.70413 283.74909 C 29.70413 283.74909 43.001456 281.86966 49.581986 280.99577 z M 29.70413 283.74909 C 29.70413 283.74909 22.257302 284.86095 16.300297 285.75 L 28.184326 285.75 C 28.642327 285.11405 29.288631 284.35305 29.70413 283.74909 z M 37.482467 270.30495 C 37.482467 270.30495 38.591435 268.01624 39.777417 265.08563 C 41.077708 261.87256 42.09961 258.8498 42.914176 256.11408 C 42.914176 256.11408 28.83633 260.00471 21.653975 262.08633 C 20.366264 266.75389 18.750706 271.13715 16.748332 275.2447 C 16.748332 275.2447 30.651981 271.87943 37.482467 270.30495 z M 16.748332 275.2447 C 16.748332 275.2447 7.221041 277.63836 0 279.4708 L 0 285.75 L 10.252604 285.75 C 10.72599 285.14692 11.33925 284.40905 12.523783 282.63029 C 14.244 280.04714 15.62654 277.54588 16.748332 275.2447 z M 21.653975 262.08633 C 21.653975 262.08633 22.311687 259.76567 22.96759 256.7156 C 23.68586 253.3755 24.205013 250.15808 24.589714 247.22677 C 24.589714 247.22677 9.8392151 251.72173 2.3207886 254.12092 C 1.7880876 259.00546 1.0128665 263.52174 0 267.71027 L 0 268.5433 C 0.24735638 268.46853 14.53314 264.15012 21.653975 262.08633 z M 2.3207886 254.12092 C 2.3207886 254.12092 2.6156332 251.52809 2.859257 248.08873 C 3.1257507 244.32652 3.26496 240.66944 3.3331299 237.34107 C 3.3331299 237.34107 0.5710248 238.22256 0 238.40147 L 0 254.88263 C 0.90084273 254.59127 1.5568012 254.36472 2.3207886 254.12092 z M 3.3331299 237.34107 C 3.3331299 237.34107 18.447066 232.77925 25.885758 230.65517 C 25.885758 230.65517 25.991079 227.76457 26.011849 224.00597 C 26.034564 219.89588 25.959645 215.95824 25.845451 212.40977 C 25.845451 212.40977 10.779479 216.33588 3.1476115 218.45798 C 3.3782163 225.0744 3.4550288 231.38919 3.3331299 237.34107 z M 3.1476115 218.45798 C 3.1476115 218.45798 3.0380523 215.16207 2.8251506 210.8817 C 2.5927088 206.20846 2.3115893 201.71927 2.0334676 197.70369 C 2.0334676 197.70369 0.2232123 198.15725 0 198.21167 L 0 219.37059 C 1.2729465 219.00779 2.1061868 218.74756 3.1476115 218.45798 z M 2.0334676 197.70369 C 2.0334676 197.70369 17.23142 194.18713 24.74681 192.57791 C 24.74681 192.57791 24.494788 189.15884 24.113774 184.75978 C 23.698105 179.96063 23.254073 175.37375 22.838916 171.29859 C 22.838916 171.29859 7.8160538 173.90093 0.22944336 175.34434 C 0.92051467 183.02202 1.5354551 190.51329 2.0334676 197.70369 z M 0.22944336 175.34434 C 0.22944336 175.34434 0.050061772 173.42215 0 172.87007 L 0 175.39084 C 0.077645288 175.37602 0.15332445 175.35882 0.22944336 175.34434 z M 22.838916 171.29859 C 22.838916 171.29859 37.745003 168.87586 45.10009 167.79234 C 45.10009 167.79234 44.705444 164.32149 44.152861 159.87706 C 43.550624 155.03327 42.936575 150.40597 42.377775 146.31717 C 42.377775 146.31717 27.756333 147.86615 20.345011 148.75733 C 21.249725 156.44242 22.095138 163.99767 22.838916 171.29859 z M 20.345011 148.75733 C 20.345011 148.75733 19.894295 144.91496 19.300114 140.02608 C 18.656277 134.72863 18.017647 129.60884 17.461466 125.19081 C 17.461466 125.19081 7.5091086 126.00819 0 126.65325 L 0 151.41091 C 2.3245412 151.09684 13.613363 149.56678 20.345011 148.75733 z M 17.461466 125.19081 C 17.461466 125.19081 31.99192 124.17159 39.143864 123.75834 C 39.143864 123.75834 36.81221 108.25406 35.600411 100.32308 C 35.600411 100.32308 21.523913 100.64182 14.35778 100.88531 C 15.402538 108.99574 16.464816 117.27391 17.461466 125.19081 z M 14.35778 100.88531 C 14.35778 100.88531 12.242142 84.488542 11.175545 76.176746 C 11.175545 76.176746 4.729931 76.236366 0 76.269763 L 0 101.48941 C 4.8590599 101.27223 9.6228475 101.0462 14.35778 100.88531 z M 11.175545 76.176746 C 11.175545 76.176746 25.107312 76.20517 31.934485 76.283199 C 31.934485 76.283199 29.497417 60.080846 28.317651 51.974089 C 28.317651 51.974089 14.890757 51.590447 8.0305176 51.449573 C 9.0736975 59.740478 10.103521 67.822666 11.175545 76.176746 z M 8.0305176 51.449573 C 8.0305176 51.449573 5.9891407 35.121935 5.0110636 27.138395 C 5.0110636 27.138395 1.3302033 27.048811 0 27.013338 L 0 51.330717 C 3.551284 51.381781 5.3906567 51.395363 8.0305176 51.449573 z M 28.317651 51.974089 C 28.317651 51.974089 41.554301 52.418281 48.034794 52.679989 C 48.034794 52.679989 45.456137 36.591356 44.298588 28.57655 C 44.298588 28.57655 31.454499 28.037307 24.907007 27.796236 C 25.995749 35.801841 27.135603 43.851655 28.317651 51.974089 z M 48.034794 52.679989 C 49.354895 60.716954 50.731391 68.710407 52.126534 76.630981 C 52.126534 76.630981 65.300365 76.967593 71.746008 77.179268 C 71.746008 77.179268 68.643486 61.509339 67.199516 53.533167 C 67.199516 53.533167 54.515289 52.941697 48.034794 52.679989 z M 67.199516 53.533167 C 67.199516 53.533167 79.706787 54.162624 85.834554 54.500549 C 85.834554 54.500549 82.876646 38.518046 81.699406 30.40848 C 81.699406 30.40848 69.450025 29.76173 63.21733 29.45505 C 64.405088 37.506788 65.756423 45.561837 67.199516 53.533167 z M 85.834554 54.500549 C 87.380152 62.424675 89.067083 70.252493 90.795492 77.887752 C 90.795492 77.887752 103.21219 78.425433 109.28584 78.718709 C 109.28584 78.718709 108.33839 74.96243 107.20586 70.162126 C 105.95338 64.853394 104.88975 60.023204 103.96988 55.549581 C 103.96988 55.549581 91.962328 54.838476 85.834554 54.500549 z M 103.96988 55.549581 C 103.96988 55.549581 115.82153 56.278497 121.6396 56.650806 C 121.6396 56.650806 120.78676 52.721026 119.86917 47.703548 C 118.85664 42.166865 118.0906 37.100469 117.51117 32.447115 C 117.51117 32.447115 105.75095 31.754127 99.783573 31.41307 C 100.9056 39.57692 102.34683 47.656212 103.96988 55.549581 z M 121.6396 56.650806 C 123.30947 64.519171 125.22874 72.214094 127.23823 79.634932 C 127.23823 79.634932 138.94686 80.274682 144.68161 80.601282 C 144.68161 80.601282 143.60985 76.941916 142.36134 72.225049 C 140.9812 67.010918 139.84064 62.22391 138.8861 57.773735 C 138.8861 57.773735 127.45767 57.023114 121.6396 56.650806 z M 138.8861 57.773735 C 138.8861 57.773735 150.18847 58.521276 155.75587 58.888912 C 155.75587 58.888912 154.8977 54.975604 154.04744 49.936487 C 153.10923 44.376052 152.48002 39.248032 152.08064 34.514172 C 152.08064 34.514172 140.68713 33.833637 134.92716 33.487878 C 135.81309 41.790671 137.20119 49.918497 138.8861 57.773735 z M 155.75587 58.888912 C 157.42012 66.731825 159.45842 74.326633 161.65422 81.583134 C 161.65422 81.583134 172.81037 82.236007 178.20256 82.547933 C 178.20256 82.547933 177.06113 78.963949 175.77273 74.309676 C 174.349 69.166542 173.21312 64.408443 172.30214 59.969983 C 172.30214 59.969983 161.32325 59.256549 155.75587 58.888912 z M 172.30214 59.969983 C 172.30214 59.969983 183.19313 60.662353 188.58487 60.989042 C 188.58487 60.989042 187.79275 57.085177 187.10176 52.022664 C 186.33929 46.436475 185.94069 41.24998 185.80623 36.441187 C 185.80623 36.441187 174.64065 35.827677 169.02172 35.505326 C 169.51107 43.948833 170.69352 52.1324 172.30214 59.969983 z M 188.58487 60.989042 C 190.10129 68.818909 192.12271 76.335646 194.38245 83.46519 C 194.38245 83.46519 205.00808 84.040412 210.25848 84.303898 C 210.25848 84.303898 209.11344 80.778017 207.87103 76.173128 C 206.49852 71.086038 205.45597 66.350885 204.66916 61.921285 C 204.66916 61.921285 193.97661 61.315731 188.58487 60.989042 z M 204.66916 61.921285 C 204.66916 61.921285 215.3187 62.489143 220.62581 62.74139 C 220.62581 62.74139 219.96913 58.847488 219.52148 53.769845 C 219.02751 48.166922 218.93888 42.9361 219.13649 38.068994 C 219.13649 38.068994 208.04319 37.574512 202.49048 37.302116 C 202.44694 45.866931 203.27927 54.096485 204.66916 61.921285 z M 220.62581 62.74139 C 221.8556 70.556209 223.71648 78.006162 225.90456 85.036153 C 225.90456 85.036153 236.25025 85.461015 241.40232 85.6356 C 241.40232 85.6356 240.32192 82.155993 239.21176 77.593713 C 237.98563 72.554935 237.12081 67.842747 236.53233 63.426619 C 236.53233 63.426619 225.93292 62.993638 220.62581 62.74139 z M 236.53233 63.426619 C 236.53233 63.426619 247.14241 63.807144 252.47193 63.954236 C 252.47193 63.954236 252.01283 60.075845 251.87507 54.999744 C 251.72305 49.398471 252 44.146833 252.57115 39.247734 C 252.57115 39.247734 241.37758 38.920672 235.80783 38.723218 C 235.13337 47.37152 235.49241 55.622705 236.53233 63.426619 z M 252.47193 63.954236 C 253.2953 71.740207 254.86093 79.125653 256.84272 86.075366 C 256.84272 86.075366 267.14449 86.279718 272.3255 86.332198 C 272.3255 86.332198 271.37517 82.889588 270.47445 78.368343 C 269.47988 73.376 268.86468 68.693963 268.53348 64.302018 C 268.53348 64.302018 257.80143 64.101328 252.47193 63.954236 z M 272.3255 86.332198 C 274.15708 93.244151 276.46661 99.792541 278.95662 105.94392 C 278.95662 105.94392 289.07427 105.95345 294.17119 105.90775 C 294.17119 105.90775 292.95546 102.85532 291.59305 98.848747 C 290.08666 94.418741 288.89878 90.283513 287.9602 86.382841 C 287.9602 86.382841 277.5065 86.384678 272.3255 86.332198 z M 287.9602 86.382841 C 287.9602 86.382841 298.50284 86.305177 303.86362 86.206108 C 303.86362 86.206108 303.09776 82.795022 302.46526 78.317183 C 301.76703 73.373903 301.45058 68.731824 301.41158 64.379533 C 301.41158 64.379533 290.28875 64.464323 284.81362 64.45033 C 284.81362 64.45033 284.59588 60.599133 284.80742 55.548031 C 285.04084 49.974466 285.70808 44.732777 286.66054 39.836328 C 286.66054 39.836328 275.17698 39.723026 269.49828 39.623938 C 268.14725 48.302025 267.94848 56.537663 268.534 64.302018 C 268.534 64.302018 279.33801 64.436322 284.81311 64.45033 C 285.14485 72.184268 286.30421 79.500613 287.9602 86.382841 z M 301.41158 64.379533 C 301.41158 64.379533 312.67647 64.215779 318.43586 64.071541 C 318.43586 64.071541 318.48052 60.261283 319.04409 55.26381 C 319.6659 49.749981 320.70575 44.556778 322.00567 39.704553 C 322.00567 39.704553 310.02392 39.847238 304.13647 39.868368 C 302.12971 48.509129 301.34258 56.681643 301.41158 64.379533 z M 318.43586 64.071541 C 318.24085 71.723211 318.92182 78.959736 320.16185 85.782361 C 320.16185 85.782361 331.27584 85.368244 336.9908 85.091964 C 336.9908 85.091964 336.44715 81.708902 336.11385 77.279521 C 335.746 72.391082 335.74441 67.802537 335.99965 63.508785 C 335.99965 63.508785 324.19525 63.927303 318.43586 64.071541 z M 335.99965 63.508785 C 335.99965 63.508785 348.02341 63.000096 354.22231 62.675244 C 354.22231 62.675244 354.51652 58.922765 355.38864 54.011174 C 356.35065 48.593353 357.69314 43.491362 359.25714 38.730452 C 359.25714 38.730452 346.55528 39.168246 340.35028 39.329899 C 337.7892 47.85525 336.45133 55.910192 335.99965 63.508785 z M 354.22231 62.675244 C 353.53112 70.209659 353.71724 77.351882 354.49464 84.119413 C 354.49464 84.119413 366.55823 83.323053 372.82531 82.847656 C 372.82531 82.847656 372.51472 79.489241 372.47442 75.114795 C 372.42994 70.288762 372.71837 65.769688 373.22838 61.555416 C 373.22838 61.555416 360.42119 62.350393 354.22231 62.675244 z M 373.22838 61.555416 C 373.22838 61.555416 386.34024 60.659887 393.14965 60.134831 C 393.14965 60.134831 393.64073 56.458427 394.72216 51.667131 C 395.91457 46.384086 397.43095 41.419278 399.11827 36.800854 C 399.11827 36.800854 385.45523 37.570835 378.81564 37.891744 C 375.89635 46.215042 374.13153 54.092593 373.22838 61.555416 z M 393.14965 60.134831 C 392.07412 67.514536 391.81874 74.547654 392.14454 81.26274 C 392.14454 81.26274 405.58324 80.044909 412.62391 79.352262 C 412.62391 79.352262 412.52774 76.017453 412.72778 71.704667 C 412.94837 66.949006 413.44852 62.514774 414.12356 58.401603 C 414.12356 58.401603 410.52409 58.719497 406.12663 59.0889 C 401.3005 59.494313 396.96928 59.840307 393.14965 60.134831 z M 414.12356 58.401603 C 414.12356 58.401603 428.6858 57.084371 436.29275 56.342297 C 436.29275 56.342297 436.87975 52.759011 438.00582 48.123161 C 439.24677 43.014361 440.73675 38.235606 442.34148 33.81344 C 442.34148 33.81344 427.46035 34.948046 420.26065 35.445382 C 417.28817 43.473821 415.31985 51.112409 414.12356 58.401603 z M 436.29275 56.342297 C 435.04157 63.529631 434.4845 70.43941 434.4417 77.104338 C 434.4417 77.104338 438.18761 76.703438 443.00603 76.172095 C 448.28946 75.589475 453.27159 75.026414 457.78653 74.50863 C 457.78653 74.50863 457.84472 71.195703 458.17668 66.950435 C 458.54251 62.272119 459.11562 57.937737 459.80708 53.946578 C 459.80708 53.946578 455.75707 54.377085 450.82261 54.885022 C 445.40492 55.442703 440.56208 55.925816 436.29275 56.342297 z M 434.4417 77.104338 C 434.4417 77.104338 430.67281 77.51033 426.09182 77.987488 C 421.06085 78.511518 416.57676 78.963391 412.62391 79.352262 C 412.74996 86.040027 413.4324 92.485894 414.48064 98.707153 C 414.48064 98.707153 411.05719 99.052378 406.89558 99.455428 C 402.32559 99.898018 398.24935 100.27774 394.65601 100.60264 C 395.93195 106.78384 397.58879 112.77077 399.42937 118.554 C 399.42937 118.554 411.978 117.4672 418.57548 116.8492 C 418.57548 116.8492 415.53048 104.938 414.48064 98.70767 C 414.48064 98.70767 417.88318 98.367283 422.26053 97.913403 C 427.06093 97.415654 431.58703 96.93211 435.69227 96.4861 C 435.69227 96.4861 435.25865 93.360232 434.92384 89.357336 C 434.55454 84.942165 434.4175 80.867881 434.4417 77.104338 z M 435.69227 96.4861 C 436.51416 102.74746 437.69339 108.86713 439.08069 114.84209 C 439.08069 114.84209 442.61158 114.48422 447.16702 114.00906 C 452.16067 113.48818 456.88777 112.98397 461.1765 112.52026 C 461.1765 112.52026 459.11385 100.24921 458.50741 93.92915 C 458.50741 93.92915 454.54611 94.386516 449.75033 94.928056 C 444.47877 95.523325 439.81056 96.038681 435.69227 96.4861 z M 439.08069 114.84209 C 439.08069 114.84209 435.52637 115.20516 431.21812 115.63118 C 426.48584 116.09915 422.2803 116.50216 418.57548 116.8492 C 420.19717 122.7153 422.04472 128.49698 423.95087 134.13393 C 423.95087 134.13393 436.92729 133.08842 443.77343 132.49372 C 443.77343 132.49372 440.47044 120.82754 439.08069 114.84209 z M 423.95087 134.13393 C 423.95087 134.13393 420.75058 134.38587 416.85776 134.67705 C 412.58641 134.99653 408.76351 135.26843 405.40058 135.49922 C 407.42506 140.85264 409.69101 146.60364 411.69942 151.80159 C 411.69942 151.80159 423.59547 151.23483 429.81304 150.89105 C 429.81304 150.89105 425.87708 139.83027 423.95087 134.13393 z M 429.81304 150.89105 C 431.79171 156.47488 433.68746 161.86666 435.52897 167.42337 C 435.52897 167.42337 447.91899 167.05635 454.39242 166.80894 C 454.39242 166.80894 450.866 155.43734 449.06768 149.7304 C 449.06768 149.7304 445.74201 149.94811 441.70017 150.19652 C 437.26882 150.46887 433.29615 150.69847 429.81304 150.89105 z M 454.39242 166.80894 C 456.1279 172.52764 457.76862 178.17957 459.30788 183.95466 C 459.30788 183.95466 472.22067 183.79099 478.94596 183.63375 C 478.94596 183.63375 475.99156 171.80896 474.42789 165.92631 C 474.42789 165.92631 470.97055 166.10004 466.76531 166.29114 C 462.15843 166.50049 458.01527 166.67048 454.39242 166.80894 z M 459.30788 183.95466 C 459.30788 183.95466 446.71399 184.02867 440.62892 184.00737 C 442.19236 189.59012 443.58403 195.17138 444.80489 200.89368 C 444.80489 200.89368 457.1537 201.24573 463.50452 201.35929 C 463.50452 201.35929 460.8404 189.70442 459.30788 183.95466 z M 463.50452 201.35929 C 464.76375 207.23918 465.86019 213.14096 466.80458 219.18404 C 466.80458 219.18404 479.65131 219.64172 486.21787 219.79072 C 486.21787 219.79072 484.16131 207.57666 482.94106 201.55411 C 482.94106 201.55411 469.85534 201.47284 463.50452 201.35929 z M 466.80458 219.18404 C 466.80458 219.18404 454.13094 218.63579 447.91013 218.30554 C 448.76686 224.23876 449.43628 230.23571 449.96117 236.43983 C 449.96117 236.43983 462.70821 237.22315 469.16154 237.55604 C 469.16154 237.55604 467.74657 225.21176 466.80458 219.18404 z M 449.96117 236.43983 C 449.96117 236.43983 437.31124 235.59421 431.05276 235.13604 C 431.41871 241.32138 431.62962 247.59343 431.77313 254.20567 C 431.77313 254.20567 444.65396 255.06939 451.13629 255.46709 C 451.13629 255.46709 450.48453 242.62593 449.96117 236.43983 z M 431.05276 235.13604 C 431.05276 235.13604 430.8799 232.05348 430.57837 228.29769 C 430.24616 224.15996 429.86528 220.49785 429.46474 217.2255 C 429.46474 217.2255 417.3674 216.43123 411.40176 216.0111 C 411.92884 221.73511 412.24002 227.56938 412.4079 233.71338 C 412.4079 233.71338 424.79429 234.67785 431.05276 235.13604 z M 411.40176 216.0111 C 411.40176 216.0111 411.1502 213.15381 410.72118 209.67196 C 410.24943 205.84332 409.71425 202.42927 409.16624 199.39455 C 409.16624 199.39455 397.67702 198.79296 392.01742 198.47832 C 392.81693 203.74984 393.34612 209.10666 393.65659 214.72643 C 393.65659 214.72643 405.43613 215.59097 411.40176 216.0111 z M 393.65659 214.72643 C 393.65659 214.72643 381.92699 213.85576 376.1667 213.43193 C 376.1667 213.43147 376.14206 210.66679 375.98067 207.32791 C 375.80296 203.65139 375.52067 200.41015 375.18433 197.52541 C 375.18433 197.52541 364.05464 196.891 358.5745 196.58903 C 358.9617 201.6098 359.03866 206.73988 358.87163 212.18705 C 358.87163 212.18705 370.37135 213.00603 376.1667 213.43245 C 376.24272 218.97334 376.08535 224.66355 375.78792 230.76834 C 375.78792 230.76834 387.89379 231.74266 393.99662 232.23699 C 393.99662 232.23699 394.03409 229.17767 393.99559 225.49528 C 393.95307 221.42808 393.83164 217.89501 393.65659 214.72643 z M 375.78792 230.76834 C 375.78792 230.76834 363.73937 229.81608 357.75077 229.36584 C 357.20677 235.42371 356.5291 241.8478 355.87647 248.74657 C 355.87647 248.74657 368.35401 249.61164 374.62933 250.06484 C 374.62933 250.06484 374.84882 246.63926 375.10682 242.56504 C 375.39845 237.95967 375.61527 234.31191 375.78792 230.76834 z M 357.75077 229.36584 C 357.75077 229.36584 358.03317 226.3228 358.30113 222.70062 C 358.59801 218.68739 358.77704 215.27074 358.87163 212.18705 C 358.87163 212.18705 347.41731 211.40393 341.71299 211.04707 C 341.30246 216.44106 340.6495 222.00565 339.85264 228.0853 C 339.85264 228.0853 351.76219 228.91561 357.75077 229.36584 z M 339.85264 228.0853 C 339.85264 228.0853 327.97836 227.31275 322.06045 226.97788 C 321.05644 232.83804 319.83771 239.63044 318.75057 246.49451 C 318.75057 246.49451 331.06684 247.16368 337.25487 247.54148 C 337.25487 247.54148 337.70077 244.03548 338.25636 239.91611 C 338.81209 235.79562 339.4566 231.10692 339.85264 228.0853 z M 322.06045 226.97788 C 322.06045 226.97788 322.58813 223.94766 323.16064 220.37363 C 323.79732 216.39894 324.26919 213.08542 324.63445 210.06366 C 324.63445 210.06366 313.26861 209.50622 307.58174 209.28697 C 306.71805 214.57453 305.61005 220.03391 304.3406 226.09214 C 304.3406 226.09214 316.14252 226.64301 322.06045 226.97788 z M 304.3406 226.09214 C 304.3406 226.09214 292.55095 225.63022 286.65795 225.47306 C 285.21195 231.37901 283.56425 238.02063 282.02413 245.03724 C 282.02413 245.03724 294.2259 245.40201 300.34704 245.64702 C 300.34704 245.64702 301.02212 242.08468 301.8684 237.93535 C 302.69233 233.89562 303.74158 228.95091 304.3406 226.09214 z M 286.65795 225.47306 C 286.65795 225.47306 287.40402 222.45843 288.24339 218.92307 C 289.18014 214.97757 289.90083 211.74495 290.5032 208.76348 C 290.5032 208.76348 279.08554 208.55854 273.34817 208.53714 C 272.11822 213.7555 270.64395 219.1372 268.9779 225.16248 C 268.9779 225.16248 280.76495 225.31591 286.65795 225.47306 z M 268.9779 225.16248 C 268.9779 225.16248 257.1787 225.12517 251.2627 225.19917 C 249.47777 231.07066 247.46476 237.64999 245.53127 244.66672 C 245.53127 244.66672 257.67875 244.63639 263.76064 244.69979 C 263.76064 244.69979 264.64878 241.11883 265.75225 236.96848 C 266.88757 232.69839 268.13002 228.22884 268.9779 225.16248 z M 251.2627 225.19917 C 251.2627 225.19917 252.17942 222.20785 253.22175 218.70551 C 254.38625 214.79266 255.2923 211.60247 256.07016 208.64825 C 256.07016 208.64825 244.47279 208.9065 238.62264 209.13556 C 237.15197 214.31203 235.42493 219.65593 233.47619 225.61724 C 233.47619 225.61724 245.3467 225.27317 251.2627 225.19917 z M 233.47619 225.61724 C 233.47619 225.61724 221.56923 226.09967 215.58012 226.44923 C 213.58759 232.22588 211.2997 238.75393 209.06321 245.62635 C 209.06321 245.62635 221.23164 245.12606 227.30912 244.96748 C 227.30912 244.96748 228.37775 241.4189 229.68417 237.30851 C 231.01552 233.11968 232.49661 228.6138 233.47619 225.61724 z M 215.58012 226.44923 C 215.58012 226.44923 216.607 223.4952 217.77172 220.02533 C 219.0692 216.15995 220.08934 212.96605 220.96222 210.03369 C 220.96222 210.03369 209.06712 210.85047 203.04755 211.37469 C 201.47976 216.53441 199.63219 221.86605 197.53575 227.72305 C 197.53575 227.72305 209.59101 226.79878 215.58012 226.44923 z M 197.53575 227.72305 C 197.53575 227.72305 185.41776 228.80336 179.30327 229.46403 C 177.19382 235.22921 174.84611 241.38513 172.36777 248.10527 C 172.36777 248.10527 184.64635 247.07841 190.76148 246.66608 C 190.76148 246.66608 191.96462 243.21136 193.40473 239.19315 C 194.66008 235.68602 196.2804 231.23019 197.53575 227.72305 z M 179.30327 229.46403 C 179.30327 229.46403 180.37238 226.56736 181.57186 223.13573 C 182.90126 219.33237 183.95538 216.10686 184.83936 213.1875 C 184.83936 213.1875 172.54042 214.64263 166.30044 215.49899 C 164.77556 220.66913 162.94854 225.98352 160.84238 231.69335 C 160.84238 231.69335 173.18877 230.12471 179.30327 229.46403 z M 160.84238 231.69335 C 160.84238 231.69335 148.40607 233.43072 142.11174 234.4291 C 140.04378 240.06366 137.72628 245.89375 135.14886 252.24455 C 135.14886 252.24455 147.6418 250.6503 153.84384 249.96097 C 153.84384 249.96097 155.12452 246.67129 156.6199 242.80792 C 158.30175 238.46283 159.62546 234.99245 160.84238 231.69335 z M 142.11174 234.4291 C 142.11174 234.4291 143.15579 231.61674 144.30489 228.23671 C 145.57248 224.50817 146.57536 221.25149 147.39565 218.33189 C 147.39565 218.33189 134.59764 220.4897 128.09192 221.7074 C 126.73087 226.90685 125.05616 232.17742 123.06949 237.68678 C 123.06949 237.68678 135.81741 235.42748 142.11174 234.4291 z M 123.06949 237.68678 C 123.06949 237.68678 110.20356 240.12351 103.67274 241.47725 C 101.78742 246.86439 99.589844 252.36223 97.067977 258.13101 C 97.067977 258.13101 109.89347 255.94687 116.2389 254.96583 C 116.2389 254.96583 117.53316 251.92136 119.00204 248.2851 C 120.62469 244.26817 121.94709 240.79939 123.06949 237.68678 z M 103.67274 241.47725 C 103.67274 241.47725 104.62988 238.78383 105.65557 235.47762 C 106.78312 231.84309 107.6604 228.57086 108.35876 225.64204 C 108.35876 225.64204 94.978878 228.55087 88.167745 230.15133 C 87.057346 235.38258 85.636263 240.57025 83.878084 245.8098 C 83.878084 245.8098 97.141938 242.83098 103.67274 241.47725 z M 83.878084 245.8098 C 83.878084 245.8098 70.466133 248.97027 63.640043 250.68806 C 62.026822 255.76221 60.074394 260.77445 57.742729 265.80238 C 57.742729 265.80238 71.033974 263.02214 77.586479 261.7432 C 77.586479 261.7432 78.823833 259.03076 80.186837 255.70274 C 81.684548 252.0458 82.890805 248.75197 83.878084 245.8098 z M 63.640043 250.68806 C 63.640043 250.68806 64.46139 248.15565 65.312292 244.95559 C 66.245493 241.44603 66.949818 238.18348 67.492004 235.24662 C 67.492004 235.24662 53.457329 238.93932 46.306734 240.9362 C 45.482983 246.18154 44.3681 251.23109 42.914176 256.11408 C 42.914176 256.11408 56.813955 252.40585 63.640043 250.68806 z M 46.306734 240.9362 C 46.306734 240.9362 46.730428 238.32305 47.112887 234.95258 C 47.531724 231.26151 47.790265 227.75905 47.951595 224.59508 C 47.951595 224.59508 33.324452 228.5311 25.885758 230.65517 C 25.692608 236.46011 25.277077 241.98927 24.589714 247.22677 C 24.589714 247.22677 39.15614 242.93309 46.306734 240.9362 z M 47.951595 224.59508 C 47.951595 224.59508 62.412361 220.86416 69.519271 219.1489 C 69.519271 219.1489 69.729192 216.40346 69.855684 212.88933 C 69.994234 209.04046 70.003899 205.4119 69.949219 202.14322 C 69.949219 202.14322 55.480343 205.26902 48.126261 206.9791 C 48.28336 213.06976 48.239869 218.9415 47.951595 224.59508 z M 48.126261 206.9791 C 48.126261 206.9791 48.056095 203.94343 47.867362 200.03275 C 47.661007 195.75693 47.382911 191.68877 47.093766 188.03969 C 47.093766 188.03969 32.2622 190.9687 24.74681 192.57791 C 25.260714 199.43415 25.641183 206.06234 25.845451 212.40977 C 25.845451 212.40977 40.77218 208.68918 48.126261 206.9791 z M 47.093766 188.03969 C 47.093766 188.03969 61.781488 185.29431 69.010775 184.0544 C 69.010775 184.0544 68.760423 180.95231 68.353451 176.97008 C 67.908637 172.61757 67.414047 168.48341 66.937516 164.78529 C 66.937516 164.78529 52.455177 166.70883 45.10009 167.79234 C 45.898087 174.7483 46.576393 181.51028 47.093766 188.03969 z M 66.937516 164.78529 C 66.937516 164.78529 81.257827 163.01423 88.289701 162.23661 C 88.289701 162.23661 87.840666 159.09055 87.190027 155.05307 C 86.479958 150.64685 85.741093 146.44245 85.056824 142.70085 C 85.056824 142.70085 71.086338 143.7133 63.968705 144.31367 C 65.080691 151.33238 66.084148 158.16274 66.937516 164.78529 z M 63.968705 144.31367 C 63.968705 144.31367 63.416347 140.81238 62.673694 136.33638 C 61.867421 131.47694 61.05981 126.78563 60.345671 122.69587 C 60.345671 122.69587 46.295807 123.34508 39.143864 123.75834 C 40.282144 131.4234 41.375422 138.98282 42.377775 146.31717 C 42.377775 146.31717 56.851073 144.91405 63.968705 144.31367 z M 60.345671 122.69587 C 60.345671 122.69587 74.218393 122.15437 81.017277 121.9569 C 81.017277 121.9569 80.29525 118.41005 79.354846 113.87677 C 83.030193 131.43712 72.795439 82.505891 76.470785 100.06624 C 76.470785 100.06624 63.129392 100.02491 56.314909 100.06521 C 57.696556 107.74408 59.058519 115.32457 60.345671 122.69587 z M 56.314909 100.06521 C 56.314909 100.06521 53.540361 84.65763 52.126534 76.630981 C 52.126534 76.630981 38.761659 76.361229 31.934485 76.283199 C 22.790315 16.436438 44.744582 160.16985 35.600411 100.32308 C 35.600411 100.32308 49.500426 100.10551 56.314909 100.06521 z M 76.470785 100.06624 C 76.470785 100.06624 89.619214 100.17988 96.048918 100.28328 C 96.048918 100.28328 95.17498 96.654624 94.075911 92.016089 C 92.850703 86.845193 91.784451 82.256502 90.795492 77.887752 C 90.795492 77.887752 78.191653 77.390943 71.746008 77.179268 C 73.310035 84.941411 74.90857 92.602176 76.470785 100.06624 z M 96.048918 100.28328 C 97.806196 107.60753 99.497441 114.58766 101.12096 121.49646 C 101.12096 121.49646 114.22704 121.31195 120.6314 121.27115 C 120.6314 121.27115 119.74549 117.96582 118.58863 113.71089 C 117.81594 110.85767 115.81322 103.52615 115.04052 100.67292 C 115.04052 100.67292 102.47861 100.38668 96.048918 100.28328 z M 115.04052 100.67292 C 115.04052 100.67292 127.4081 101.00353 133.44974 101.19537 C 133.44974 101.19537 132.40297 97.739464 131.09794 93.285779 C 129.64758 88.336107 128.38417 83.866796 127.23823 79.634932 C 127.23823 79.634932 115.35949 79.011986 109.28584 78.718709 C 111.16202 86.230282 113.1241 93.596427 115.04052 100.67292 z M 133.44974 101.19537 C 135.57915 108.26129 137.40781 114.17217 139.53722 121.23808 C 139.53722 121.23808 151.83712 121.29665 157.83946 121.35745 C 157.83946 121.35745 156.79736 118.24938 155.43961 114.22094 C 153.88664 109.6133 152.60659 105.80808 151.28999 101.81084 C 151.28999 101.81084 139.49138 101.38721 133.44974 101.19537 z M 151.28999 101.81084 C 151.28999 101.81084 162.90697 102.25335 168.58713 102.48263 C 168.58713 102.48263 167.39854 99.165775 165.93406 94.858809 C 164.30932 90.080519 162.90391 85.713035 161.65422 81.583134 C 161.65422 81.583134 150.47983 80.931496 144.68161 80.601282 C 146.79597 87.926971 149.05955 95.039182 151.28999 101.81084 z M 168.58713 102.48263 C 170.92401 109.06274 173.35232 115.59517 175.55104 121.58999 C 175.55104 121.58999 187.07143 121.78708 192.69832 121.8985 C 195.06898 127.87412 197.26226 133.44692 199.24365 138.88145 C 199.24365 138.88145 210.63675 138.84751 216.20127 138.85251 C 216.20127 138.85251 215.16935 136.23059 213.76111 132.81722 C 212.27944 129.22585 210.6377 125.35588 209.32056 122.24628 C 209.32056 122.24628 198.32519 122.00941 192.69832 121.89799 C 192.69816 121.8976 191.52173 118.94368 189.99977 115.09272 C 188.28761 110.76046 186.80569 106.95655 185.37835 103.17458 C 185.37835 103.17458 174.33591 102.7147 168.58713 102.48263 z M 185.37835 103.17458 C 185.37835 103.17458 196.40091 103.63526 201.71069 103.85258 C 201.71069 103.85258 200.42591 100.64213 198.86796 96.448893 C 197.14155 91.802228 195.66678 87.517271 194.38245 83.46519 C 194.38245 83.46519 183.65503 82.863346 178.20256 82.547933 C 180.44499 89.731203 182.9125 96.640912 185.37835 103.17458 z M 201.71069 103.85258 C 204.24453 110.26066 206.87619 116.47543 209.32056 122.24628 C 209.32056 122.24628 220.22481 122.48655 225.46944 122.60027 C 225.46944 122.60027 224.19232 119.75702 222.55851 116.03581 C 220.73258 111.87704 219.13478 108.13372 217.64356 104.48354 C 217.64356 104.48354 207.08577 104.07256 201.71069 103.85258 z M 217.64356 104.48354 C 217.64356 104.48354 228.09149 104.86879 233.24778 105.037 C 233.24778 105.037 231.92389 101.90451 230.35028 97.796615 C 228.60803 93.248519 227.14685 89.027455 225.90456 85.036153 C 225.90456 85.036153 215.50888 84.567384 210.25848 84.303898 C 212.49824 91.376438 215.04739 98.128666 217.64356 104.48354 z M 233.24778 105.037 C 235.85729 111.30563 238.60599 117.32117 241.20957 122.92686 C 241.20957 122.92686 251.52638 123.11845 256.61793 123.19455 C 256.61793 123.19455 255.28428 120.42107 253.60261 116.78564 C 251.72989 112.73721 250.09488 109.04632 248.60446 105.48348 C 248.60446 105.48348 238.40405 105.20522 233.24778 105.037 z M 248.60446 105.48348 C 248.60446 105.48348 258.75249 105.71638 263.80612 105.79458 C 263.80612 105.79458 262.50478 102.7137 260.99751 98.666846 C 259.32989 94.18954 257.96688 90.017574 256.84272 86.075366 C 256.84272 86.075366 246.55437 85.810184 241.40232 85.6356 C 243.50244 92.62009 245.99863 99.254225 248.60446 105.48348 z M 263.80612 105.79458 C 266.36489 111.96786 269.11929 117.86154 271.78496 123.37386 C 271.78496 123.37386 281.81333 123.43839 286.81298 123.43639 C 286.81298 123.43639 285.47232 120.69472 283.81317 117.10396 C 281.96988 113.11469 280.37674 109.45225 278.95662 105.94392 C 278.95662 105.94392 268.85973 105.87278 263.80612 105.79458 z M 286.81298 123.43639 C 289.48201 128.95289 292.12834 134.17561 294.5846 139.17703 C 294.5846 139.17703 304.57785 139.15209 309.57232 139.11399 C 309.57232 139.11399 308.33396 136.61699 306.7234 133.37584 C 304.89591 129.69816 303.35198 126.56924 301.81724 123.35578 C 301.81724 123.35578 291.81265 123.43439 286.81298 123.43639 z M 301.81724 123.35578 C 301.81724 123.35578 311.85659 123.22015 316.92691 123.10618 C 316.92691 123.10618 315.63378 120.36006 314.0692 116.77633 C 312.33403 112.80187 310.85896 109.14295 309.57594 105.66228 C 309.57594 105.66228 299.26812 105.86205 294.17119 105.90775 C 296.55445 112.02832 299.19556 117.86651 301.81724 123.35578 z M 309.57594 105.66228 C 309.57594 105.66228 319.99224 105.38574 325.30831 105.18634 C 325.30831 105.18634 324.23532 102.14091 323.08519 98.156799 C 321.81425 93.754154 320.86408 89.645986 320.16185 85.782361 C 320.16185 85.782361 309.22442 86.107038 303.86362 86.206108 C 305.32001 93.055429 307.32142 99.546085 309.57594 105.66228 z M 325.30831 105.18634 C 327.40283 111.2933 329.81494 117.13284 332.28256 122.66435 C 332.28256 122.66435 342.70017 122.26495 348.03767 122.00806 C 348.03767 122.00806 346.84672 119.22574 345.44558 115.61517 C 343.8939 111.61667 342.6054 107.93553 341.51714 104.45977 C 341.51714 104.45977 330.62436 104.98694 325.30831 105.18634 z M 341.51714 104.45977 C 341.51714 104.45977 352.62174 103.843 358.36262 103.46449 C 358.36262 103.46449 357.47831 100.40792 356.58909 96.430806 C 355.60702 92.038431 354.93449 87.948404 354.49464 84.119413 C 354.49464 84.119413 342.70576 84.815683 336.9908 85.091964 C 338.00176 91.884515 339.60128 98.340765 341.51714 104.45977 z M 358.36262 103.46449 C 360.07717 109.59296 362.15372 115.48438 364.35864 121.11664 C 364.35864 121.11664 375.59006 120.39723 381.4253 119.97097 C 381.4253 119.97097 377.51854 108.35003 376.01477 102.18394 C 376.01477 102.18394 364.1035 103.08598 358.36262 103.46449 z M 376.01477 102.18394 C 376.01477 102.18394 388.25479 101.18144 394.65601 100.60264 C 394.65601 100.60264 393.99243 97.518118 393.38632 93.534342 C 392.71733 89.137299 392.32871 85.058413 392.14454 81.26274 C 392.14454 81.26274 379.09238 82.37226 372.82531 82.847656 C 373.37121 89.586763 374.51361 96.028505 376.01477 102.18394 z M 381.4253 119.97097 C 383.45508 125.65896 385.68794 131.23897 387.905 136.60975 C 387.905 136.60975 399.40347 135.9108 405.40058 135.49922 C 405.40058 135.49922 401.27419 124.35055 399.42937 118.554 C 399.42937 118.554 387.26052 119.54472 381.4253 119.97097 z M 387.905 136.60975 C 387.905 136.60975 376.68964 137.23054 371.26054 137.48618 C 373.65634 142.91016 375.85526 147.78269 378.08907 152.98653 C 378.08907 152.98653 388.92968 152.68688 394.52217 152.49095 C 394.52217 152.49095 390.13392 142.00921 387.905 136.60975 z M 394.52217 152.49095 C 396.67786 157.73189 398.69524 162.81921 400.56315 167.99905 C 400.56315 167.99905 411.82723 167.90123 417.64634 167.80733 C 417.64634 167.80733 416.71804 165.14714 415.49247 161.81906 C 414.16977 158.22723 412.83916 154.75136 411.69942 151.80159 C 411.69942 151.80159 400.11468 152.29501 394.52217 152.49095 z M 417.64634 167.80733 C 419.51769 173.15028 421.22353 178.43778 422.75404 183.84356 C 422.75404 183.84356 434.54384 183.98607 440.62892 184.00737 C 440.62892 184.00737 439.85551 181.22381 438.81198 177.76641 C 437.67346 173.99435 436.54502 170.48926 435.52897 167.42337 C 435.52897 167.42337 423.46545 167.71343 417.64634 167.80733 z M 422.75404 183.84356 C 422.75404 183.84356 411.1828 183.64421 405.53597 183.51076 C 406.98335 188.73901 408.1888 193.98167 409.16624 199.39455 C 409.16624 199.39455 420.7929 199.96562 426.72796 200.21879 C 426.72796 200.21879 426.17828 197.44103 425.38179 194.01968 C 424.50858 190.26876 423.60824 186.86058 422.75404 183.84356 z M 426.72796 200.21879 C 427.85021 205.78385 428.75211 211.40349 429.46474 217.2255 C 429.46474 217.2255 441.6893 217.97529 447.91013 218.30554 C 447.91013 218.30554 447.49166 215.3436 446.8735 211.70181 C 446.19473 207.70303 445.48809 204.09593 444.80489 200.89368 C 444.80489 200.89368 432.66301 200.47196 426.72796 200.21879 z M 405.53597 183.51076 C 405.53597 183.51076 404.82373 180.90312 403.81876 177.67029 C 402.71971 174.1348 401.6003 170.87512 400.56315 167.99905 C 400.56315 167.99905 389.50847 168.04577 384.1104 168.03677 C 385.92791 173.04193 387.50614 177.99209 388.83518 183.05859 C 388.83518 183.05859 399.88915 183.37731 405.53597 183.51076 z M 388.83518 183.05859 C 388.83518 183.05859 377.91023 182.71534 372.52248 182.53304 C 373.70617 187.44854 374.58545 192.38906 375.18433 197.52541 C 375.18433 197.52541 386.32245 198.16172 392.01742 198.47832 C 392.01742 198.47832 391.63146 195.84623 391.01024 192.62235 C 390.32836 189.08367 389.57833 185.89157 388.83518 183.05859 z M 372.52248 182.53304 C 372.52248 182.53304 371.94481 180.08106 371.07244 177.04501 C 370.11701 173.71992 369.10177 170.66712 368.1305 167.95771 C 368.1305 167.95771 357.65587 167.86106 352.47513 167.79906 C 354.11855 172.52888 355.45406 177.198 356.47592 181.98011 C 356.47592 181.98011 367.10901 182.34988 372.52248 182.53304 z M 356.47592 181.98011 C 356.47592 181.98011 345.84899 181.61459 340.58283 181.44422 C 341.43456 186.11193 341.93056 190.80916 342.10315 195.72087 C 342.10315 195.72087 353.0645 196.28541 358.5745 196.58903 C 358.5745 196.58903 358.39721 194.08202 358.01071 191.02607 C 357.58606 187.66853 357.04813 184.65793 356.47592 181.98011 z M 342.10315 195.72087 C 342.10315 195.72087 331.15989 195.19525 325.68813 194.96949 C 325.65213 199.79875 325.27648 204.75235 324.63445 210.06366 C 324.63445 210.06366 336.00869 210.6902 341.71299 211.04707 C 341.71299 211.04707 341.93144 208.35798 342.06129 205.1358 C 342.20448 201.5838 342.20025 198.48408 342.10315 195.72087 z M 325.68813 194.96949 C 325.68813 194.96949 325.72345 192.55752 325.58323 189.62822 C 325.42907 186.40743 325.12033 183.53241 324.73883 180.9688 C 324.73883 180.9688 314.16364 180.69833 308.84781 180.59569 C 309.36312 185.09859 309.48616 189.62898 309.25451 194.38193 C 309.25451 194.38193 320.21638 194.74373 325.68813 194.96949 z M 309.25451 194.38193 C 309.25451 194.38193 298.26345 194.08933 292.73304 194.00263 C 292.32393 198.71094 291.55694 203.54797 290.5032 208.76348 C 290.5032 208.76348 301.89488 209.06772 307.58174 209.28697 C 307.58174 209.28697 308.0256 206.65505 308.42665 203.51833 C 308.86918 200.05707 309.124 197.05978 309.25451 194.38193 z M 292.73304 194.00263 C 292.73304 194.00263 292.95536 191.65176 293.03586 188.79933 C 293.12442 185.66146 293.02501 182.86537 292.82244 180.36625 C 292.82244 180.36625 282.04201 180.30118 276.58467 180.32078 C 276.80756 184.75455 276.61976 189.20618 276.05809 193.8755 C 276.05809 193.8755 287.20262 193.91593 292.73304 194.00263 z M 276.05809 193.8755 C 276.05809 193.8755 264.84275 193.93202 259.17126 194.03984 C 258.48282 198.70412 257.42864 203.48885 256.07016 208.64825 C 256.07016 208.64825 267.61082 208.51584 273.34817 208.53714 C 273.34817 208.53714 273.97411 205.94288 274.59358 202.85687 C 275.27752 199.44964 275.74134 196.5087 276.05809 193.8755 z M 259.17126 194.03984 C 259.17126 194.03984 259.534 191.7111 259.78311 188.88046 C 260.0573 185.76589 260.1216 182.98704 260.0632 180.49699 C 260.0632 180.49699 248.88382 180.73996 243.19704 180.93263 C 243.20451 185.4005 242.80181 189.86924 242.01882 194.53438 C 242.01882 194.53438 253.49976 194.14766 259.17126 194.03984 z M 242.01882 194.53438 C 242.01882 194.53438 230.43326 195.04361 224.5527 195.39583 C 223.70469 200.09474 222.49207 204.89436 220.96222 210.03369 C 220.96222 210.03369 232.7725 209.36461 238.62264 209.13556 C 238.62264 209.13556 239.36863 206.56054 240.13211 203.4899 C 240.97497 200.10005 241.57724 197.16535 242.01882 194.53438 z M 224.5527 195.39583 C 224.5527 195.39583 224.99412 193.05035 225.34387 190.18426 C 225.72864 187.03116 225.89638 184.20347 225.93298 181.66436 C 225.93298 181.66436 214.20788 182.314 208.22657 182.72735 C 208.11318 187.33495 207.60823 191.91835 206.7295 196.65828 C 206.7295 196.65828 218.67216 195.74804 224.5527 195.39583 z M 206.7295 196.65828 C 206.7295 196.65828 194.65509 197.71295 188.51201 198.35378 C 187.63215 203.1635 186.39841 208.03871 184.83936 213.1875 C 184.83936 213.1875 197.02799 211.89891 203.04755 211.37469 C 203.04755 211.37469 203.84359 208.80178 204.66606 205.71302 C 205.57321 202.30628 206.2344 199.3289 206.7295 196.65828 z M 188.51201 198.35378 C 188.51201 198.35378 188.96893 195.95275 189.34607 192.99494 C 189.76073 189.74273 189.96473 186.80119 190.04163 184.15517 C 190.04163 184.15517 177.66957 185.30232 171.3513 185.9809 C 171.3513 185.9809 171.43603 183.56297 171.35543 180.5156 C 171.26698 177.17177 171.01978 174.06853 170.70431 171.26707 C 170.70431 171.26707 157.99972 172.35047 151.4998 172.98582 C 152.0343 178.18447 152.25314 183.22936 152.13593 188.23606 C 152.13593 188.23606 165.03248 186.65948 171.35078 185.9809 C 171.21309 190.83106 170.71846 195.62381 169.8687 200.51231 C 169.8687 200.51231 182.36892 198.99461 188.51201 198.35378 z M 169.8687 200.51231 C 169.8687 200.51231 157.21683 202.19327 150.77219 203.16124 C 149.97821 208.15109 148.85053 213.15368 147.39565 218.33189 C 147.39565 218.33189 160.06047 216.35535 166.30044 215.49899 C 166.30044 215.49899 167.07661 212.91697 167.87347 209.78099 C 168.751 206.32753 169.39072 203.26204 169.8687 200.51231 z M 150.77219 203.16124 C 150.77219 203.16124 151.18487 200.67105 151.5215 197.56934 C 151.89127 194.16214 152.06972 191.04377 152.13542 188.23606 C 152.13542 188.23606 139.05958 189.96596 132.3852 190.95114 C 132.30631 196.13881 131.91696 201.22609 131.20233 206.32694 C 131.20233 206.32694 144.32756 204.12921 150.77219 203.16124 z M 131.20233 206.32694 C 131.20233 206.32694 117.9133 208.70518 111.14257 210.03317 C 110.52455 215.26083 109.60215 220.42753 108.35876 225.64204 C 108.35876 225.64204 121.5862 222.92509 128.09192 221.7074 C 128.09192 221.7074 128.78698 219.10953 129.48512 215.90413 C 130.25249 212.38086 130.80113 209.19061 131.20233 206.32694 z M 111.14257 210.03317 C 111.14257 210.03317 111.46526 207.42493 111.70946 204.13431 C 111.97736 200.5244 112.08307 197.17379 112.09807 194.15559 C 112.09807 194.15559 98.308046 196.54728 91.280733 197.87733 C 91.314853 203.48447 91.093178 208.93833 90.583618 214.30061 C 90.583618 214.30061 104.37184 211.36117 111.14257 210.03317 z M 90.583618 214.30061 C 90.583618 214.30061 76.626181 217.43364 69.519271 219.1489 C 69.122298 224.65537 68.459567 230.00563 67.492004 235.24662 C 67.492004 235.24662 81.3566 231.75178 88.167745 230.15133 C 88.167745 230.15133 88.736677 227.54005 89.285506 224.25246 C 89.887596 220.64585 90.298048 217.30572 90.583618 214.30061 z M 91.280733 197.87733 C 91.280733 197.87733 91.274816 195.0824 91.136556 191.50924 C 90.985136 187.59613 90.731135 183.90902 90.445125 180.59053 C 90.445125 180.59053 76.240062 182.8145 69.010775 184.0544 C 69.525796 190.27772 69.851509 196.30202 69.949219 202.14322 C 69.949219 202.14322 84.25341 199.20739 91.280733 197.87733 z M 90.445125 180.59053 C 90.445125 180.59053 104.47562 178.52853 111.35651 177.61345 C 111.35651 177.61345 111.11146 174.79079 110.67748 171.17456 C 110.20259 167.21741 109.65144 163.47271 109.106 160.10702 C 109.106 160.10702 95.321584 161.45899 88.289701 162.23661 C 89.20238 168.55006 89.933776 174.65736 90.445125 180.59053 z M 109.106 160.10702 C 109.106 160.10702 122.69935 158.88195 129.35024 158.35778 C 129.35024 158.35778 128.837 155.48924 128.07539 151.799 C 127.24397 147.77047 126.36514 143.91813 125.54324 140.47618 C 125.54324 140.47618 112.34372 141.06778 105.59304 141.43633 C 106.94364 147.87441 108.12937 154.08061 109.106 160.10702 z M 105.59304 141.43633 C 105.59304 141.43633 104.9243 138.23006 104.01071 134.11016 C 103.01988 129.64201 102.01293 125.29214 101.12096 121.49646 C 101.12096 121.49646 87.816155 121.75943 81.017277 121.9569 C 82.466539 129.07272 83.828265 135.98307 85.056824 142.70085 C 85.056824 142.70085 98.842365 141.80488 105.59304 141.43633 z M 125.54324 140.47618 C 125.54324 140.47618 138.53932 139.97262 144.88521 139.7801 C 144.88521 139.7801 144.09162 136.82086 143.00057 132.99757 C 141.82127 128.865 140.6046 124.77988 139.53722 121.23808 C 139.53722 121.23808 127.03575 121.23035 120.6314 121.27115 C 122.41201 127.91921 124.06544 134.28743 125.54324 140.47618 z M 144.88521 139.7801 C 146.48887 145.73216 147.87585 151.42276 148.99762 156.95011 C 148.99762 156.95011 161.79073 156.16789 168.03677 155.8463 C 168.03677 155.8463 167.44745 153.20229 166.56399 149.79396 C 165.59988 146.07446 164.5729 142.50388 163.61069 139.30829 C 163.61069 139.30829 151.2311 139.58759 144.88521 139.7801 z M 163.61069 139.30829 C 163.61069 139.30829 175.7851 139.09007 181.72379 139.02097 C 181.72379 139.02097 180.80651 136.25663 179.54615 132.6689 C 178.19379 128.81927 176.76979 124.91293 175.55104 121.58999 C 175.55104 121.58999 163.84182 121.41825 157.83946 121.35745 C 159.9368 127.6245 161.87674 133.54978 163.61069 139.30829 z M 181.72379 139.02097 C 183.57815 144.5878 185.17755 149.87243 186.46872 155.00863 C 186.46872 155.00863 198.45671 154.56922 204.30794 154.40091 C 204.30794 154.40091 203.63048 151.92574 202.61864 148.73046 C 201.51544 145.24669 200.33927 141.88646 199.24365 138.88145 C 199.24365 138.88145 187.66249 138.95187 181.72379 139.02097 z M 204.30794 154.40091 C 205.691 159.38043 206.73195 164.14906 207.39613 168.84809 C 207.39613 168.84809 219.16518 168.29171 224.92271 168.07811 C 224.92271 168.07811 224.57188 165.79353 223.93207 162.88463 C 223.23146 159.69928 222.40621 156.69643 221.58027 153.98698 C 221.58027 153.98698 210.15918 154.23261 204.30794 154.40091 z M 221.58027 153.98698 C 221.58027 153.98698 232.82511 153.79388 238.3255 153.73118 C 238.3255 153.73118 237.5504 151.36692 236.41038 148.31446 C 235.16942 144.99172 233.85385 141.76941 232.64161 138.89902 C 232.64161 138.89902 221.7658 138.85751 216.20127 138.85251 C 218.2871 144.1377 220.09904 149.12787 221.58027 153.98698 z M 232.64161 138.89902 C 232.64161 138.89902 243.36323 138.95427 248.62203 138.98687 C 248.62203 138.98687 247.49223 136.45643 245.96948 133.15725 C 244.44643 129.85739 242.51956 125.74738 241.20957 122.92686 C 241.20957 122.92686 230.78139 122.71545 225.46944 122.60027 C 228.05038 128.38175 230.4339 133.67152 232.64161 138.89902 z M 248.62203 138.98687 C 250.90321 144.09405 252.91286 148.90069 254.59531 153.59889 C 254.59531 153.59889 265.2279 153.55849 270.45533 153.55549 C 270.45533 153.55549 269.58001 151.24499 268.32109 148.26589 C 266.95423 145.03137 265.51581 141.87295 264.21385 139.0835 C 264.21385 139.0835 253.88085 139.01947 248.62203 138.98687 z M 264.21385 139.0835 C 264.21385 139.0835 274.44534 139.1402 279.50232 139.1574 C 279.50232 139.1574 278.30088 136.66723 276.70766 133.42441 C 274.8174 129.57699 273.4274 126.77027 271.78496 123.37386 C 271.78496 123.37386 261.70946 123.27065 256.61793 123.19455 C 259.2797 128.77462 261.86371 134.04831 264.21385 139.0835 z M 279.50232 139.1574 C 281.92591 144.18788 284.10256 148.91602 285.98203 153.56789 C 285.98203 153.56789 296.19961 153.59049 301.26585 153.60199 C 301.26585 153.60199 300.29642 151.28885 298.93938 148.31653 C 297.47257 145.10381 295.93829 141.93341 294.5846 139.17703 C 294.5846 139.17703 284.5593 139.1746 279.50232 139.1574 z M 301.26585 153.60199 C 303.23065 158.25983 304.87142 162.7375 306.15289 167.21667 C 306.15289 167.21667 316.46812 167.32625 321.60569 167.39185 C 321.60569 167.39185 320.91836 165.13284 319.88332 162.28312 C 318.75259 159.16993 317.54617 156.23839 316.40963 153.62576 C 316.40963 153.62576 306.33208 153.61349 301.26585 153.60199 z M 316.40963 153.62576 C 316.40963 153.62576 326.47837 153.62396 331.52912 153.60716 C 331.52912 153.60716 330.48523 151.24077 329.06467 148.21369 C 327.54424 144.97382 325.94155 141.69447 324.58897 138.93932 C 324.58897 138.93932 314.56678 139.07589 309.57232 139.11399 C 312.06897 144.16527 314.35821 148.91004 316.40963 153.62576 z M 324.58897 138.93932 C 324.58897 138.93932 334.66688 138.75728 339.77358 138.6272 C 339.77358 138.6272 334.83106 128.37718 332.28256 122.66435 C 332.28256 122.66435 321.99723 122.99221 316.92691 123.10618 C 319.46074 128.55586 322.14206 133.95505 324.58897 138.93932 z M 339.77358 138.6272 C 342.25939 143.79522 344.57961 148.62881 346.75299 153.51518 C 346.75299 153.51518 357.00695 153.40469 362.22182 153.31829 C 362.22182 153.31829 361.13734 150.85332 359.70414 147.71708 C 358.23744 144.50753 356.5212 140.83242 355.27547 138.15074 C 355.27547 138.15074 344.88027 138.49712 339.77358 138.6272 z M 355.27547 138.15074 C 355.27547 138.15074 365.83145 137.74182 371.26054 137.48618 C 371.26054 137.48618 366.61569 126.88207 364.35864 121.11664 C 364.35864 121.11664 353.37518 121.75118 348.03767 122.00806 C 350.37674 127.55827 352.88204 132.9984 355.27547 138.15074 z M 362.22182 153.31829 C 364.40795 158.28279 366.38659 163.09294 368.1305 167.95771 C 368.1305 167.95771 378.71234 168.02777 384.1104 168.03677 C 384.1104 168.03677 383.21271 165.54467 381.98392 162.41954 C 380.648 159.02197 379.29579 155.79767 378.08907 152.98653 C 378.08907 152.98653 367.43667 153.23189 362.22182 153.31829 z M 346.75299 153.51518 C 346.75299 153.51518 336.57986 153.59036 331.52912 153.60716 C 333.63958 158.37264 335.47725 162.97225 337.00837 167.59804 C 337.00837 167.59804 347.28144 167.73696 352.47513 167.79906 C 352.47513 167.79906 351.66697 165.44409 350.51246 162.48259 C 349.25343 159.25301 347.95014 156.2067 346.75299 153.51518 z M 337.00837 167.59804 C 337.00837 167.59804 326.73797 167.45735 321.60569 167.39185 C 323.01291 171.9291 324.05833 176.39598 324.73883 180.9688 C 324.73883 180.9688 335.29781 181.27323 340.58283 181.44422 C 340.58283 181.44422 340.17371 179.11564 339.4816 176.23369 C 338.72284 173.07419 337.86277 170.17932 337.00837 167.59804 z M 306.15289 167.21667 C 306.15289 167.21667 295.78616 167.1302 290.54712 167.1097 C 291.70277 171.55283 292.46142 175.91235 292.82244 180.36625 C 292.82244 180.36625 303.532 180.49307 308.84781 180.59569 C 308.84781 180.59569 308.60846 178.34927 308.10677 175.56706 C 307.55637 172.51469 306.86895 169.71952 306.15289 167.21667 z M 290.54712 167.1097 C 290.54712 167.1097 289.9866 164.89767 289.08985 162.09812 C 288.10906 159.03619 287.02654 156.15315 285.98203 153.56789 C 285.98203 153.56789 275.68274 153.553 270.45533 153.556 C 272.23488 158.20882 273.66055 162.66851 274.69641 167.10608 C 274.69641 167.10608 263.97567 167.1697 258.52014 167.2425 C 259.44428 171.70097 259.95916 176.06149 260.0632 180.49699 C 260.0632 180.49699 271.12732 180.34038 276.58467 180.32078 C 276.58467 180.32078 276.4923 178.10924 276.16247 175.36397 C 275.80047 172.35091 275.27574 169.58856 274.69641 167.1066 C 274.69641 167.1066 285.3081 167.0892 290.54712 167.1097 z M 258.52014 167.2425 C 258.52014 167.2425 258.07571 165.02351 257.31556 162.2056 C 256.48354 159.12124 255.53219 156.21511 254.59531 153.59889 C 254.59531 153.59889 243.8259 153.66848 238.3255 153.73118 C 239.905 158.49 241.12457 163.04485 241.94854 167.55463 C 241.94854 167.55463 253.06461 167.3153 258.52014 167.2425 z M 241.94854 167.55463 C 241.94854 167.55463 230.68023 167.8645 224.92271 168.07811 C 225.6595 172.66752 225.99818 177.14183 225.93298 181.66436 C 225.93298 181.66436 237.51026 181.12529 243.19704 180.93263 C 243.19704 180.93263 243.21257 178.70462 243.01617 175.92828 C 242.80055 172.88032 242.40969 170.07858 241.94854 167.55463 z M 207.39613 168.84809 C 207.39613 168.84809 195.44705 169.49787 189.3316 169.89919 C 189.93805 174.73649 190.17872 179.44039 190.04163 184.15517 C 190.04163 184.15517 202.24526 183.1407 208.22657 182.72735 C 208.22657 182.72735 208.30139 180.42991 208.18884 177.55247 C 208.0653 174.39382 207.76795 171.47872 207.39613 168.84809 z M 189.3316 169.89919 C 189.3316 169.89919 189.04454 167.49114 188.50012 164.41735 C 187.90388 161.05102 187.18931 157.87509 186.46872 155.00863 C 186.46872 155.00863 174.28281 155.52471 168.03677 155.8463 C 169.23973 161.16166 170.14078 166.2628 170.70431 171.26707 C 170.70431 171.26707 183.21615 170.30052 189.3316 169.89919 z M 148.99762 156.95011 C 148.99762 156.95011 136.00114 157.83361 129.35024 158.35778 C 130.39617 164.1204 131.19614 169.67019 131.71392 175.08957 C 131.71392 175.08957 144.99953 173.62117 151.49928 172.98582 C 151.49928 172.98582 151.2454 170.39694 150.76858 167.08593 C 150.24648 163.46053 149.62399 160.03648 148.99762 156.95011 z M 131.71392 175.08957 C 131.71392 175.08957 118.2374 176.69836 111.35651 177.61345 C 111.8676 183.2785 112.12477 188.76811 112.09807 194.15559 C 112.09807 194.15559 125.7108 191.9363 132.3852 190.95114 C 132.3852 190.95114 132.43858 188.36508 132.34438 185.08328 C 132.24105 181.48498 132.0037 178.12248 131.71392 175.08957 z " />
  </g>
</svg>
