<?xml version="1.0" encoding="UTF-8" standalone="no"?>
<!-- Created with Inkscape (http://www.inkscape.org/) -->

<!--Jesus
loves you-->

<svg width="30.077719mm" height="51.099155mm" viewBox="0 0 30.077719 51.099155" version="1.1"
  id="svg1" xml:space="preserve" xmlns="http://www.w3.org/2000/svg"
  xmlns:svg="http://www.w3.org/2000/svg" xmlns:rdf="http://www.w3.org/1999/02/22-rdf-syntax-ns#"
  xmlns:cc="http://creativecommons.org/ns#"><defs id="defs1"/><g id="layer1" transform="translate(-70.942674,-39.404851)"><g id="g25" transform="matrix(-1,0,0,1,215.86962,2.9874087)" class="animate-jj"><g id="g24"><path style="fill:#2eff3f;fill-opacity:1;stroke:#000000;stroke-width:0.73949;stroke-linecap:butt;stroke-linejoin:miter;stroke-dasharray:none;stroke-opacity:1" d="m 122.44383,70.130552 c 0,0 -6.22051,9.064323 -4.47472,10.521483 2.51406,2.098411 6.61253,-9.262455 6.58786,-9.280618" id="path18"/><path id="path16-4" style="fill:#686868;stroke:#000000;stroke-width:0.745189;stroke-linecap:round;stroke-linejoin:round;paint-order:fill markers stroke" d="m 117.61819,79.571771 c -0.29412,1.029384 0.58444,1.380563 1.8626,1.911172 1.36944,0.5685 2.72202,0.640454 2.93207,-0.05339 0.19117,-0.631645 -0.40719,-1.656394 -2.14764,-2.196946 -1.38795,-0.431073 -2.46151,-0.310271 -2.64703,0.339168 z"/></g><g id="g28"><path style="fill:#2eff3f;fill-opacity:1;stroke:#000000;stroke-width:0.665;stroke-linecap:butt;stroke-linejoin:miter;stroke-dasharray:none;stroke-opacity:1" d="m 122.61444,62.866449 c 0,0 -6.66619,6.097204 -5.83366,7.850124 0.83254,1.752918 7.78277,-6.530999 7.78277,-6.530999" id="path12"/></g><g id="g26"><path style="fill:#2eff3f;fill-opacity:1;stroke:#000000;stroke-width:0.7;stroke-linecap:round;stroke-linejoin:round;stroke-dasharray:none;stroke-opacity:1" d="m 123.93123,44.542247 c -3.1103,-0.07833 -8.92977,9.70796 -1.39336,14.454586 2.56541,1.615765 6.82076,2.949027 10.25716,3.119376 10.49002,0.520011 10.14493,-7.632638 8.03006,-11.60045 0.2987,0.11201 3.79148,-5.234816 2.50158,-8.809497 -0.93256,-2.584404 -4.86093,-3.244994 -6.35747,-0.535742 -0.53586,0.970084 -1.62153,6.208632 -1.4373,6.308008 0,0 -1.99144,-1.843494 -5.4559,-1.87921 0,0 2.45101,-5.18639 1.1072,-7.214654 -1.24069,-1.872625 -4.36057,-2.300832 -6.00031,-0.285729 -1.38094,1.697058 -1.25166,6.443312 -1.25166,6.443312 z" id="path1"/><path id="path2" style="stroke-width:0.7;stroke-linecap:round;stroke-linejoin:round;paint-order:fill markers stroke" d="m 135.62258,21.120815 c -0.22914,1.673453 -0.14771,3.443358 -1.356,3.348149 -1.2083,-0.09521 -0.42329,-2.233188 -0.42329,-3.870398 0,-1.63721 0.008,-2.159102 0.84485,-2.125154 0.83667,0.03395 1.15655,1.025329 0.93444,2.647403 z" transform="rotate(8.9879196)"/><path id="path2-8" style="stroke-width:0.7;stroke-linecap:round;stroke-linejoin:round;paint-order:fill markers stroke" d="m 142.67777,45.481503 c -0.63632,1.564623 -0.81704,3.478168 -1.96414,3.086772 -1.14712,-0.391398 -0.21437,-2.339894 0.19096,-3.926134 0.40535,-1.586238 0.54231,-2.339913 1.3447,-2.099833 0.80222,0.240036 1.04526,1.422612 0.42843,2.939199 z"/><path id="path4" style="color:#000000;fill:#000000;stroke-width:0.896294;stroke-linejoin:round;-inkscape-stroke:none" d="m 132.11645,47.090973 c 0,0 -0.28598,0.462962 -0.5015,1.175179 -0.10776,0.356108 -0.17756,0.736031 -0.0649,1.09772 0.11274,0.361688 0.46742,0.653003 0.96294,0.705412 1.16053,0.113622 1.80339,-0.777495 2.21301,-1.743984 0.19142,-0.451655 -0.33468,-0.698262 -0.43545,-0.7508 l -1.30696,-0.681417 c -0.45764,-0.180281 -0.66101,-0.150474 -0.86714,0.19789 z"/><g id="g21"><circle style="fill:#000000;fill-opacity:1;stroke:none;stroke-width:0.665001;stroke-linecap:round;stroke-linejoin:round;stroke-dasharray:none;stroke-opacity:1;paint-order:fill markers stroke" id="path17" cx="121.56656" cy="55.667713" r="0.33642057"/><circle style="fill:#000000;fill-opacity:1;stroke:none;stroke-width:0.665001;stroke-linecap:round;stroke-linejoin:round;stroke-dasharray:none;stroke-opacity:1;paint-order:fill markers stroke" id="circle17" cx="122.7935" cy="55.01466" r="0.33642057"/><circle style="fill:#000000;fill-opacity:1;stroke:none;stroke-width:0.665001;stroke-linecap:round;stroke-linejoin:round;stroke-dasharray:none;stroke-opacity:1;paint-order:fill markers stroke" id="circle18" cx="122.65498" cy="56.419712" r="0.33642057"/></g></g><g id="g22"><path style="fill:#686868;fill-opacity:1;stroke:#000000;stroke-width:0.665;stroke-linecap:butt;stroke-linejoin:miter;stroke-dasharray:none;stroke-opacity:1" d="m 128.60103,70.612168 c 0,0 3.57936,-0.05843 3.94422,1.054473 0.36486,1.112902 -2.6431,5.84562 -3.24863,6.133558 -0.60545,0.287973 -2.38071,0.333947 -2.3024,-0.165981 0.0783,-0.499938 3.00338,-4.861632 3.00338,-4.861632 0,0 -2.83471,-0.323156 -2.8233,-1.236464 0.0115,-0.913302 0.17568,-1.040499 0.17568,-1.040499" id="path13"/><g id="g20"><path id="path14" style="fill:#0ddcff;fill-opacity:1;stroke:#000016;stroke-width:0.365;stroke-linecap:round;stroke-linejoin:round;stroke-dasharray:none;stroke-opacity:1;paint-order:fill markers stroke" d="m 130.98331,74.114967 a 0.48484141,0.64810431 17.64524 0 1 -0.65849,0.470647 0.48484141,0.64810431 17.64524 0 1 -0.26557,-0.764579 0.48484141,0.64810431 17.64524 0 1 0.65849,-0.470646 0.48484141,0.64810431 17.64524 0 1 0.26557,0.764578 z"/><path style="fill:none;stroke:#000016;stroke-width:0.265;stroke-linecap:round;stroke-linejoin:round;stroke-dasharray:none;stroke-opacity:1" d="m 130.81644,73.35198 0.5442,-0.603578 -0.7126,-0.03748" id="path15"/><path style="fill:none;stroke:#000016;stroke-width:0.265;stroke-linecap:round;stroke-linejoin:round;stroke-dasharray:none;stroke-opacity:1" d="m 130.35593,74.613062 -0.5442,0.603578 0.7126,0.03748" id="path15-9"/></g><path id="path16" style="fill:#686868;stroke:#000000;stroke-width:0.745189;stroke-linecap:round;stroke-linejoin:round;paint-order:fill markers stroke" d="m 132.15391,77.67669 c -0.0611,1.068831 -1.00629,1.111252 -2.38788,1.19157 -1.48026,0.08605 -2.78115,-0.291228 -2.7511,-1.015543 0.0274,-0.659373 0.92972,-1.43006 2.7511,-1.3676 1.4525,0.04981 2.42647,0.517255 2.38788,1.191573 z"/></g><g id="g27"><path style="fill:#2eff3f;fill-opacity:1;stroke:#000000;stroke-width:0.665;stroke-linecap:butt;stroke-linejoin:round;stroke-dasharray:none;stroke-opacity:1" d="m 133.23244,64.909381 8.92504,-8.351147 c 1.40947,-1.318841 3.1301,-0.434329 2.14716,1.543577 -1.56527,3.149684 -11.31956,7.876201 -11.31956,7.876201" id="path8"/></g><g id="g23" style="fill:#c8ffde;fill-opacity:1"><path id="path5" style="fill:#c8ffde;fill-opacity:1;stroke:#000000;stroke-width:0.665001;stroke-linecap:round;stroke-linejoin:round;stroke-opacity:1;paint-order:fill markers stroke" d="m 123.24312,59.407743 c -0.45628,0.477376 -0.8583,1.111777 -1.19527,1.936316 -2.1511,5.263608 -1.81162,9.453526 2.53524,10.791073 3.66963,1.129158 7.61116,-1.798571 8.5137,-6.450252 0.25901,-1.335 0.5963,-2.525934 0.73793,-3.547588 -0.33498,0.0021 -0.67957,-0.0033 -1.03972,-0.02119 -3.13946,-0.155629 -6.95844,-1.282829 -9.55188,-2.708362 z"/><path id="path341" style="fill:#000000;fill-opacity:1;fill-rule:evenodd;stroke:none;stroke-width:0.21906;stroke-linejoin:round;stroke-dasharray:none;stroke-opacity:1" d="m 129.37231,63.436119 c -0.0233,-0.0088 -0.0472,-0.01633 -0.0715,-0.02265 -0.30195,-0.07845 -0.6908,0.159449 -0.89641,0.454844 -0.26579,-0.131793 -0.55824,-0.240512 -0.87254,-0.322165 -0.33711,-0.08754 -0.66397,-0.138925 -0.97463,-0.15493 -0.0663,-0.330498 -0.27955,-0.666245 -0.5542,-0.737596 -0.38915,-0.10115 -0.82777,0.137491 -0.92785,0.532952 -0.0339,0.133371 -0.0332,0.303304 -0.002,0.473855 -0.50781,0.256578 -0.87663,0.693787 -1.03475,1.317509 -0.35849,1.415185 0.79107,2.382974 2.48405,2.822767 1.69291,0.439781 3.04831,0.237456 3.40672,-1.177769 l 1.7e-4,2.2e-5 c 0.16816,-0.663634 0.0238,-1.284729 -0.35156,-1.802636 0.13769,-0.151672 0.24379,-0.330225 0.28367,-0.487708 0.0876,-0.346023 -0.10919,-0.712903 -0.42024,-0.866883 l 2e-5,1.9e-5 c -0.0222,-0.01103 -0.045,-0.02088 -0.0684,-0.02964 z m -1.9802,1.010775 c 0.15588,0.04928 0.22548,0.176459 0.25186,0.246563 0.0263,0.07011 0.0307,0.118368 0.0347,0.163647 0.008,0.09057 0.004,0.168582 0.001,0.24371 -0.001,0.03147 -0.002,0.05016 -0.003,0.07821 0.0251,0.0081 0.042,0.01364 0.07,0.02269 0.0685,0.02212 0.13982,0.04459 0.22069,0.0851 0.0405,0.0203 0.0848,0.04295 0.14002,0.09573 0.0552,0.05278 0.13841,0.167441 0.12908,0.320374 -0.01,0.148315 -0.0825,0.229355 -0.13034,0.275659 -0.0473,0.04642 -0.0872,0.07102 -0.12498,0.09325 -0.0755,0.04448 -0.14608,0.07464 -0.21357,0.103394 -0.0416,0.01771 -0.0707,0.03051 -0.10419,0.04506 -0.001,0.03651 -0.002,0.06812 -0.004,0.112942 -0.002,0.07339 -0.004,0.149678 -0.0205,0.239179 -0.008,0.04485 -0.0172,0.09338 -0.0505,0.160044 -0.0331,0.06674 -0.11078,0.176004 -0.25556,0.215129 -0.15813,0.04272 -0.27449,-0.02224 -0.33338,-0.06335 -0.0589,-0.04109 -0.0908,-0.07749 -0.12014,-0.112407 -0.0588,-0.06985 -0.10204,-0.137886 -0.14413,-0.203262 -0.0196,-0.03065 -0.0327,-0.04973 -0.0502,-0.07654 -0.031,0.01025 -0.0541,0.01774 -0.0895,0.02946 -0.073,0.02428 -0.14816,0.04974 -0.23693,0.06666 -0.0444,0.0085 -0.0915,0.01678 -0.16426,0.01057 -0.0727,-0.0063 -0.21164,-0.03555 -0.3039,-0.177087 -0.0861,-0.132159 -0.0674,-0.264402 -0.0484,-0.334654 0.0187,-0.07031 0.0425,-0.111695 0.0651,-0.150313 0.0454,-0.07723 0.0932,-0.137022 0.13874,-0.194794 0.022,-0.02801 0.0359,-0.04628 0.055,-0.07061 -0.0157,-0.02445 -0.0267,-0.04187 -0.0449,-0.06989 -0.0396,-0.06098 -0.0814,-0.12441 -0.11945,-0.205665 -0.019,-0.04062 -0.0385,-0.08471 -0.0507,-0.156051 -0.0121,-0.07132 -0.018,-0.200205 0.0738,-0.321965 0.085,-0.112805 0.19044,-0.1428 0.25621,-0.155118 0.0658,-0.01231 0.11214,-0.01003 0.15535,-0.0068 0.0865,0.0063 0.15889,0.02264 0.22788,0.0378 0.0476,0.01046 0.0832,0.01782 0.1202,0.02581 0.0247,-0.02787 0.0481,-0.0542 0.0796,-0.09023 0.0466,-0.05345 0.0954,-0.109479 0.16089,-0.166495 0.0328,-0.0285 0.0689,-0.05823 0.12918,-0.08818 0.0604,-0.02996 0.16545,-0.07118 0.30315,-0.0276 z"/></g></g></g><metadata id="metadata1"><rdf:RDF><cc:Work rdf:about=""><cc:license rdf:resource="http://creativecommons.org/licenses/by-sa/4.0/"/></cc:Work><cc:License rdf:about="http://creativecommons.org/licenses/by-sa/4.0/"><cc:permits rdf:resource="http://creativecommons.org/ns#Reproduction"/><cc:permits rdf:resource="http://creativecommons.org/ns#Distribution"/><cc:requires rdf:resource="http://creativecommons.org/ns#Notice"/><cc:requires rdf:resource="http://creativecommons.org/ns#Attribution"/><cc:permits rdf:resource="http://creativecommons.org/ns#DerivativeWorks"/><cc:requires rdf:resource="http://creativecommons.org/ns#ShareAlike"/></cc:License></rdf:RDF></metadata></svg>